solid 
facet normal 0.0 0.0 -1.0
outer loop
vertex 8.8 4.8 0.0
vertex 9.3 5.3 0.0
vertex 12.1 5.3 0.0
endloop
endfacet
facet normal 0.0 0.0 -1.0
outer loop
vertex 6.5 5.3 0.0
vertex 8.3 5.3 0.0
vertex 8.8 4.8 0.0
endloop
endfacet
facet normal 0.0 0.0 -1.0
outer loop
vertex 0.0 0.5 0.0
vertex 4.174305165466398 4.6256948345336015 0.0
vertex 5.0 3.8 0.0
endloop
endfacet
facet normal -0.0 -0.0 -0.9999999999999999
outer loop
vertex 39.5 10.3 0.0
vertex 39.5 0.5 0.0
vertex 29.5 0.5 0.0
endloop
endfacet
facet normal 0.0 0.0 -1.0
outer loop
vertex 29.5 5.3 0.0
vertex 29.5 10.3 0.0
vertex 39.5 10.3 0.0
endloop
endfacet
facet normal 0.0 0.0 -1.0
outer loop
vertex 24.0 3.8 0.0
vertex 25.5 5.3 0.0
vertex 29.5 5.3 0.0
endloop
endfacet
facet normal 0.0 0.0 -1.0
outer loop
vertex 20.7 5.3 0.0
vertex 22.5 5.3 0.0
vertex 24.0 3.8 0.0
endloop
endfacet
facet normal 0.0 0.0 -1.0
outer loop
vertex 17.9 5.3 0.0
vertex 19.7 5.3 0.0
vertex 20.2 4.8 0.0
endloop
endfacet
facet normal 0.0 0.0 -1.0
outer loop
vertex 13.1 5.3 0.0
vertex 14.899999999999999 5.3 0.0
vertex 16.4 3.8 0.0
endloop
endfacet
facet normal 0.0 0.0 -1.0
outer loop
vertex 8.8 4.8 0.0
vertex 12.1 5.3 0.0
vertex 12.6 4.8 0.0
endloop
endfacet
facet normal 0.0 0.0 -1.0
outer loop
vertex 5.0 3.8 0.0
vertex 6.5 5.3 0.0
vertex 8.8 4.8 0.0
endloop
endfacet
facet normal 0.0 0.0 -1.0
outer loop
vertex 29.5 0.5 0.0
vertex 0.0 0.5 0.0
vertex 5.0 3.8 0.0
endloop
endfacet
facet normal 0.0 -0.0 -1.0
outer loop
vertex 29.5 5.3 0.0
vertex 39.5 10.3 0.0
vertex 29.5 0.5 0.0
endloop
endfacet
facet normal 0.0 0.0 -1.0
outer loop
vertex 20.2 4.8 0.0
vertex 20.7 5.3 0.0
vertex 24.0 3.8 0.0
endloop
endfacet
facet normal 0.0 0.0 -1.0
outer loop
vertex 16.4 3.8 0.0
vertex 17.9 5.3 0.0
vertex 20.2 4.8 0.0
endloop
endfacet
facet normal 0.0 0.0 -1.0
outer loop
vertex 12.6 4.8 0.0
vertex 13.1 5.3 0.0
vertex 16.4 3.8 0.0
endloop
endfacet
facet normal 0.0 0.0 -1.0
outer loop
vertex 5.0 3.8 0.0
vertex 8.8 4.8 0.0
vertex 12.6 4.8 0.0
endloop
endfacet
facet normal 0.0 0.0 -1.0
outer loop
vertex 24.0 3.8 0.0
vertex 29.5 5.3 0.0
vertex 29.5 0.5 0.0
endloop
endfacet
facet normal 0.0 0.0 -0.9999999999999999
outer loop
vertex 16.4 3.8 0.0
vertex 20.2 4.8 0.0
vertex 24.0 3.8 0.0
endloop
endfacet
facet normal 0.0 0.0 -1.0
outer loop
vertex 5.0 3.8 0.0
vertex 12.6 4.8 0.0
vertex 16.4 3.8 0.0
endloop
endfacet
facet normal 0.0 0.0 -1.0
outer loop
vertex 16.4 3.8 0.0
vertex 24.0 3.8 0.0
vertex 29.5 0.5 0.0
endloop
endfacet
facet normal 0.0 0.0 -1.0
outer loop
vertex 29.5 0.5 0.0
vertex 5.0 3.8 0.0
vertex 16.4 3.8 0.0
endloop
endfacet
facet normal 0.0 0.0 1.0
outer loop
vertex 12.1 5.3 1.0
vertex 9.3 5.3 1.0
vertex 8.8 4.8 1.0
endloop
endfacet
facet normal 0.0 0.0 1.0
outer loop
vertex 8.8 4.8 1.0
vertex 8.3 5.3 1.0
vertex 6.5 5.3 1.0
endloop
endfacet
facet normal 0.0 0.0 1.0
outer loop
vertex 5.0 3.8 1.0
vertex 4.174305165466398 4.6256948345336015 1.0
vertex 0.0 0.5 1.0
endloop
endfacet
facet normal 0.0 0.0 0.9999999999999999
outer loop
vertex 29.5 0.5 1.0
vertex 39.5 0.5 1.0
vertex 39.5 10.3 1.0
endloop
endfacet
facet normal 0.0 0.0 1.0
outer loop
vertex 39.5 10.3 1.0
vertex 29.5 10.3 1.0
vertex 29.5 5.3 1.0
endloop
endfacet
facet normal 0.0 0.0 1.0
outer loop
vertex 29.5 5.3 1.0
vertex 25.5 5.3 1.0
vertex 24.0 3.8 1.0
endloop
endfacet
facet normal 0.0 0.0 1.0
outer loop
vertex 24.0 3.8 1.0
vertex 22.5 5.3 1.0
vertex 20.7 5.3 1.0
endloop
endfacet
facet normal 0.0 0.0 1.0
outer loop
vertex 20.2 4.8 1.0
vertex 19.7 5.3 1.0
vertex 17.9 5.3 1.0
endloop
endfacet
facet normal 0.0 0.0 1.0
outer loop
vertex 16.4 3.8 1.0
vertex 14.899999999999999 5.3 1.0
vertex 13.1 5.3 1.0
endloop
endfacet
facet normal 0.0 0.0 1.0
outer loop
vertex 12.6 4.8 1.0
vertex 12.1 5.3 1.0
vertex 8.8 4.8 1.0
endloop
endfacet
facet normal 0.0 0.0 1.0
outer loop
vertex 8.8 4.8 1.0
vertex 6.5 5.3 1.0
vertex 5.0 3.8 1.0
endloop
endfacet
facet normal -0.0 0.0 1.0
outer loop
vertex 5.0 3.8 1.0
vertex 0.0 0.5 1.0
vertex 29.5 0.5 1.0
endloop
endfacet
facet normal 0.0 -0.0 1.0
outer loop
vertex 29.5 0.5 1.0
vertex 39.5 10.3 1.0
vertex 29.5 5.3 1.0
endloop
endfacet
facet normal 0.0 0.0 1.0
outer loop
vertex 24.0 3.8 1.0
vertex 20.7 5.3 1.0
vertex 20.2 4.8 1.0
endloop
endfacet
facet normal 0.0 0.0 1.0
outer loop
vertex 20.2 4.8 1.0
vertex 17.9 5.3 1.0
vertex 16.4 3.8 1.0
endloop
endfacet
facet normal 0.0 0.0 1.0
outer loop
vertex 16.4 3.8 1.0
vertex 13.1 5.3 1.0
vertex 12.6 4.8 1.0
endloop
endfacet
facet normal 0.0 0.0 1.0
outer loop
vertex 12.6 4.8 1.0
vertex 8.8 4.8 1.0
vertex 5.0 3.8 1.0
endloop
endfacet
facet normal 0.0 -0.0 1.0
outer loop
vertex 29.5 0.5 1.0
vertex 29.5 5.3 1.0
vertex 24.0 3.8 1.0
endloop
endfacet
facet normal 0.0 0.0 0.9999999999999999
outer loop
vertex 24.0 3.8 1.0
vertex 20.2 4.8 1.0
vertex 16.4 3.8 1.0
endloop
endfacet
facet normal 0.0 0.0 1.0
outer loop
vertex 16.4 3.8 1.0
vertex 12.6 4.8 1.0
vertex 5.0 3.8 1.0
endloop
endfacet
facet normal 0.0 0.0 1.0
outer loop
vertex 29.5 0.5 1.0
vertex 24.0 3.8 1.0
vertex 16.4 3.8 1.0
endloop
endfacet
facet normal 0.0 0.0 1.0
outer loop
vertex 16.4 3.8 1.0
vertex 5.0 3.8 1.0
vertex 29.5 0.5 1.0
endloop
endfacet
facet normal 0.7071067811865475 0.7071067811865475 0.0
outer loop
vertex 12.1 5.3 1.0
vertex 12.6 4.8 1.0
vertex 12.1 5.3 0.0
endloop
endfacet
facet normal 0.7071067811865475 0.7071067811865475 0.0
outer loop
vertex 12.1 5.3 0.0
vertex 12.6 4.8 1.0
vertex 12.6 4.8 0.0
endloop
endfacet
facet normal -0.7071067811865475 0.7071067811865475 0.0
outer loop
vertex 12.6 4.8 1.0
vertex 13.1 5.3 1.0
vertex 12.6 4.8 0.0
endloop
endfacet
facet normal -0.7071067811865475 0.7071067811865475 0.0
outer loop
vertex 12.6 4.8 0.0
vertex 13.1 5.3 1.0
vertex 13.1 5.3 0.0
endloop
endfacet
facet normal -0.0 1.0 0.0
outer loop
vertex 13.1 5.3 1.0
vertex 14.899999999999999 5.3 1.0
vertex 13.1 5.3 0.0
endloop
endfacet
facet normal -0.0 1.0 0.0
outer loop
vertex 13.1 5.3 0.0
vertex 14.899999999999999 5.3 1.0
vertex 14.899999999999999 5.3 0.0
endloop
endfacet
facet normal 0.7071067811865476 0.7071067811865476 0.0
outer loop
vertex 14.899999999999999 5.3 1.0
vertex 16.4 3.8 1.0
vertex 14.899999999999999 5.3 0.0
endloop
endfacet
facet normal 0.7071067811865476 0.7071067811865476 0.0
outer loop
vertex 14.899999999999999 5.3 0.0
vertex 16.4 3.8 1.0
vertex 16.4 3.8 0.0
endloop
endfacet
facet normal -0.7071067811865476 0.7071067811865476 0.0
outer loop
vertex 16.4 3.8 1.0
vertex 17.9 5.3 1.0
vertex 16.4 3.8 0.0
endloop
endfacet
facet normal -0.7071067811865476 0.7071067811865476 0.0
outer loop
vertex 16.4 3.8 0.0
vertex 17.9 5.3 1.0
vertex 17.9 5.3 0.0
endloop
endfacet
facet normal -0.0 1.0 0.0
outer loop
vertex 17.9 5.3 1.0
vertex 19.7 5.3 1.0
vertex 17.9 5.3 0.0
endloop
endfacet
facet normal -0.0 1.0 0.0
outer loop
vertex 17.9 5.3 0.0
vertex 19.7 5.3 1.0
vertex 19.7 5.3 0.0
endloop
endfacet
facet normal 0.7071067811865475 0.7071067811865475 0.0
outer loop
vertex 19.7 5.3 1.0
vertex 20.2 4.8 1.0
vertex 19.7 5.3 0.0
endloop
endfacet
facet normal 0.7071067811865475 0.7071067811865475 0.0
outer loop
vertex 19.7 5.3 0.0
vertex 20.2 4.8 1.0
vertex 20.2 4.8 0.0
endloop
endfacet
facet normal -0.7071067811865475 0.7071067811865475 0.0
outer loop
vertex 20.2 4.8 1.0
vertex 20.7 5.3 1.0
vertex 20.2 4.8 0.0
endloop
endfacet
facet normal -0.7071067811865475 0.7071067811865475 0.0
outer loop
vertex 20.2 4.8 0.0
vertex 20.7 5.3 1.0
vertex 20.7 5.3 0.0
endloop
endfacet
facet normal -0.0 1.0 0.0
outer loop
vertex 20.7 5.3 1.0
vertex 22.5 5.3 1.0
vertex 20.7 5.3 0.0
endloop
endfacet
facet normal -0.0 1.0 0.0
outer loop
vertex 20.7 5.3 0.0
vertex 22.5 5.3 1.0
vertex 22.5 5.3 0.0
endloop
endfacet
facet normal 0.7071067811865476 0.7071067811865476 0.0
outer loop
vertex 22.5 5.3 1.0
vertex 24.0 3.8 1.0
vertex 22.5 5.3 0.0
endloop
endfacet
facet normal 0.7071067811865476 0.7071067811865476 0.0
outer loop
vertex 22.5 5.3 0.0
vertex 24.0 3.8 1.0
vertex 24.0 3.8 0.0
endloop
endfacet
facet normal -0.7071067811865476 0.7071067811865476 0.0
outer loop
vertex 24.0 3.8 1.0
vertex 25.5 5.3 1.0
vertex 24.0 3.8 0.0
endloop
endfacet
facet normal -0.7071067811865476 0.7071067811865476 0.0
outer loop
vertex 24.0 3.8 0.0
vertex 25.5 5.3 1.0
vertex 25.5 5.3 0.0
endloop
endfacet
facet normal -0.0 1.0 0.0
outer loop
vertex 25.5 5.3 1.0
vertex 29.5 5.3 1.0
vertex 25.5 5.3 0.0
endloop
endfacet
facet normal -0.0 1.0 0.0
outer loop
vertex 25.5 5.3 0.0
vertex 29.5 5.3 1.0
vertex 29.5 5.3 0.0
endloop
endfacet
facet normal -1.0 0.0 -0.0
outer loop
vertex 29.5 5.3 1.0
vertex 29.5 10.3 1.0
vertex 29.5 5.3 0.0
endloop
endfacet
facet normal -1.0 0.0 0.0
outer loop
vertex 29.5 5.3 0.0
vertex 29.5 10.3 1.0
vertex 29.5 10.3 0.0
endloop
endfacet
facet normal -0.0 1.0 0.0
outer loop
vertex 29.5 10.3 1.0
vertex 39.5 10.3 1.0
vertex 29.5 10.3 0.0
endloop
endfacet
facet normal -0.0 1.0 0.0
outer loop
vertex 29.5 10.3 0.0
vertex 39.5 10.3 1.0
vertex 39.5 10.3 0.0
endloop
endfacet
facet normal 1.0 0.0 0.0
outer loop
vertex 39.5 10.3 1.0
vertex 39.5 0.5 1.0
vertex 39.5 10.3 0.0
endloop
endfacet
facet normal 1.0 0.0 0.0
outer loop
vertex 39.5 10.3 0.0
vertex 39.5 0.5 1.0
vertex 39.5 0.5 0.0
endloop
endfacet
facet normal -0.0 -1.0 -0.0
outer loop
vertex 39.5 0.5 1.0
vertex 29.5 0.5 1.0
vertex 39.5 0.5 0.0
endloop
endfacet
facet normal -0.0 -1.0 -0.0
outer loop
vertex 39.5 0.5 0.0
vertex 29.5 0.5 1.0
vertex 29.5 0.5 0.0
endloop
endfacet
facet normal -0.0 -1.0 -0.0
outer loop
vertex 29.5 0.5 1.0
vertex 0.0 0.5 1.0
vertex 29.5 0.5 0.0
endloop
endfacet
facet normal -0.0 -1.0 -0.0
outer loop
vertex 29.5 0.5 0.0
vertex 0.0 0.5 1.0
vertex 0.0 0.5 0.0
endloop
endfacet
facet normal -0.702953436937675 0.7112358719141703 0.0
outer loop
vertex 0.0 0.5 1.0
vertex 4.174305165466398 4.6256948345336015 1.0
vertex 0.0 0.5 0.0
endloop
endfacet
facet normal -0.702953436937675 0.7112358719141703 0.0
outer loop
vertex 0.0 0.5 0.0
vertex 4.174305165466398 4.6256948345336015 1.0
vertex 4.174305165466398 4.6256948345336015 0.0
endloop
endfacet
facet normal 0.7071067811865476 0.7071067811865476 0.0
outer loop
vertex 4.174305165466398 4.6256948345336015 1.0
vertex 5.0 3.8 1.0
vertex 4.174305165466398 4.6256948345336015 0.0
endloop
endfacet
facet normal 0.7071067811865476 0.7071067811865476 0.0
outer loop
vertex 4.174305165466398 4.6256948345336015 0.0
vertex 5.0 3.8 1.0
vertex 5.0 3.8 0.0
endloop
endfacet
facet normal -0.7071067811865476 0.7071067811865476 0.0
outer loop
vertex 5.0 3.8 1.0
vertex 6.5 5.3 1.0
vertex 5.0 3.8 0.0
endloop
endfacet
facet normal -0.7071067811865476 0.7071067811865476 0.0
outer loop
vertex 5.0 3.8 0.0
vertex 6.5 5.3 1.0
vertex 6.5 5.3 0.0
endloop
endfacet
facet normal -0.0 1.0 0.0
outer loop
vertex 6.5 5.3 1.0
vertex 8.3 5.3 1.0
vertex 6.5 5.3 0.0
endloop
endfacet
facet normal -0.0 1.0 0.0
outer loop
vertex 6.5 5.3 0.0
vertex 8.3 5.3 1.0
vertex 8.3 5.3 0.0
endloop
endfacet
facet normal 0.7071067811865475 0.7071067811865475 0.0
outer loop
vertex 8.3 5.3 1.0
vertex 8.8 4.8 1.0
vertex 8.3 5.3 0.0
endloop
endfacet
facet normal 0.7071067811865475 0.7071067811865475 0.0
outer loop
vertex 8.3 5.3 0.0
vertex 8.8 4.8 1.0
vertex 8.8 4.8 0.0
endloop
endfacet
facet normal -0.0 1.0 0.0
outer loop
vertex 9.3 5.3 1.0
vertex 12.1 5.3 1.0
vertex 9.3 5.3 0.0
endloop
endfacet
facet normal -0.0 1.0 0.0
outer loop
vertex 9.3 5.3 0.0
vertex 12.1 5.3 1.0
vertex 12.1 5.3 0.0
endloop
endfacet
facet normal -0.7071067811865475 0.7071067811865475 0.0
outer loop
vertex 8.8 4.8 1.0
vertex 9.3 5.3 1.0
vertex 8.8 4.8 0.0
endloop
endfacet
facet normal -0.7071067811865475 0.7071067811865475 0.0
outer loop
vertex 8.8 4.8 0.0
vertex 9.3 5.3 1.0
vertex 9.3 5.3 0.0
endloop
endfacet

endsolid
