solid 
facet normal 0.0 0.0 -0.9999999999999999
outer loop
vertex 8.8 1.7999999999999998 0.0
vertex 11.2 4.199999999999999 0.0
vertex 12.6 2.8 0.0
endloop
endfacet
facet normal 0.0 0.0 -1.0
outer loop
vertex 5.0 3.8 0.0
vertex 5.9 4.7 0.0
vertex 8.8 1.7999999999999998 0.0
endloop
endfacet
facet normal 0.0 0.0 -1.0
outer loop
vertex 0.0 0.5 0.0
vertex 4.174305165466398 4.6256948345336015 0.0
vertex 5.0 3.8 0.0
endloop
endfacet
facet normal -0.0 -0.0 -0.9999999999999999
outer loop
vertex 39.5 10.3 0.0
vertex 39.5 0.5 0.0
vertex 29.5 0.5 0.0
endloop
endfacet
facet normal 0.0 0.0 -1.0
outer loop
vertex 29.5 5.3 0.0
vertex 29.5 10.3 0.0
vertex 39.5 10.3 0.0
endloop
endfacet
facet normal 0.0 0.0 -1.0
outer loop
vertex 24.0 3.8 0.0
vertex 25.5 5.3 0.0
vertex 29.5 5.3 0.0
endloop
endfacet
facet normal 0.0 0.0 -1.0
outer loop
vertex 20.7 5.3 0.0
vertex 22.5 5.3 0.0
vertex 24.0 3.8 0.0
endloop
endfacet
facet normal 0.0 0.0 -1.0
outer loop
vertex 18.9 5.3 0.0
vertex 19.7 5.3 0.0
vertex 20.2 4.8 0.0
endloop
endfacet
facet normal 0.0 0.0 -1.0
outer loop
vertex 12.6 2.8 0.0
vertex 14.499999999999998 4.699999999999999 0.0
vertex 16.4 2.8 0.0
endloop
endfacet
facet normal 0.0 0.0 -1.0
outer loop
vertex 0.0 0.5 0.0
vertex 5.0 3.8 0.0
vertex 8.8 1.7999999999999998 0.0
endloop
endfacet
facet normal 0.0 -0.0 -1.0
outer loop
vertex 29.5 5.3 0.0
vertex 39.5 10.3 0.0
vertex 29.5 0.5 0.0
endloop
endfacet
facet normal 0.0 0.0 -1.0
outer loop
vertex 20.2 4.8 0.0
vertex 20.7 5.3 0.0
vertex 24.0 3.8 0.0
endloop
endfacet
facet normal 0.0 0.0 -1.0
outer loop
vertex 16.4 2.8 0.0
vertex 18.9 5.3 0.0
vertex 20.2 4.8 0.0
endloop
endfacet
facet normal 0.0 0.0 -1.0
outer loop
vertex 8.8 1.7999999999999998 0.0
vertex 12.6 2.8 0.0
vertex 16.4 2.8 0.0
endloop
endfacet
facet normal 0.0 0.0 -1.0
outer loop
vertex 29.5 0.5 0.0
vertex 0.0 0.5 0.0
vertex 8.8 1.7999999999999998 0.0
endloop
endfacet
facet normal 0.0 0.0 -1.0
outer loop
vertex 24.0 3.8 0.0
vertex 29.5 5.3 0.0
vertex 29.5 0.5 0.0
endloop
endfacet
facet normal 0.0 0.0 -1.0
outer loop
vertex 16.4 2.8 0.0
vertex 20.2 4.8 0.0
vertex 24.0 3.8 0.0
endloop
endfacet
facet normal 0.0 0.0 -1.0
outer loop
vertex 29.5 0.5 0.0
vertex 8.8 1.7999999999999998 0.0
vertex 16.4 2.8 0.0
endloop
endfacet
facet normal 0.0 0.0 -1.0
outer loop
vertex 16.4 2.8 0.0
vertex 24.0 3.8 0.0
vertex 29.5 0.5 0.0
endloop
endfacet
facet normal 0.0 0.0 0.9999999999999999
outer loop
vertex 12.6 2.8 1.0
vertex 11.2 4.199999999999999 1.0
vertex 8.8 1.7999999999999998 1.0
endloop
endfacet
facet normal 0.0 0.0 1.0
outer loop
vertex 8.8 1.7999999999999998 1.0
vertex 5.9 4.7 1.0
vertex 5.0 3.8 1.0
endloop
endfacet
facet normal 0.0 0.0 1.0
outer loop
vertex 5.0 3.8 1.0
vertex 4.174305165466398 4.6256948345336015 1.0
vertex 0.0 0.5 1.0
endloop
endfacet
facet normal 0.0 0.0 0.9999999999999999
outer loop
vertex 29.5 0.5 1.0
vertex 39.5 0.5 1.0
vertex 39.5 10.3 1.0
endloop
endfacet
facet normal 0.0 0.0 1.0
outer loop
vertex 39.5 10.3 1.0
vertex 29.5 10.3 1.0
vertex 29.5 5.3 1.0
endloop
endfacet
facet normal 0.0 0.0 1.0
outer loop
vertex 29.5 5.3 1.0
vertex 25.5 5.3 1.0
vertex 24.0 3.8 1.0
endloop
endfacet
facet normal 0.0 0.0 1.0
outer loop
vertex 24.0 3.8 1.0
vertex 22.5 5.3 1.0
vertex 20.7 5.3 1.0
endloop
endfacet
facet normal 0.0 0.0 1.0
outer loop
vertex 20.2 4.8 1.0
vertex 19.7 5.3 1.0
vertex 18.9 5.3 1.0
endloop
endfacet
facet normal 0.0 0.0 1.0
outer loop
vertex 16.4 2.8 1.0
vertex 14.499999999999998 4.699999999999999 1.0
vertex 12.6 2.8 1.0
endloop
endfacet
facet normal 0.0 0.0 1.0
outer loop
vertex 8.8 1.7999999999999998 1.0
vertex 5.0 3.8 1.0
vertex 0.0 0.5 1.0
endloop
endfacet
facet normal 0.0 -0.0 1.0
outer loop
vertex 29.5 0.5 1.0
vertex 39.5 10.3 1.0
vertex 29.5 5.3 1.0
endloop
endfacet
facet normal 0.0 0.0 1.0
outer loop
vertex 24.0 3.8 1.0
vertex 20.7 5.3 1.0
vertex 20.2 4.8 1.0
endloop
endfacet
facet normal 0.0 0.0 1.0
outer loop
vertex 20.2 4.8 1.0
vertex 18.9 5.3 1.0
vertex 16.4 2.8 1.0
endloop
endfacet
facet normal 0.0 0.0 1.0
outer loop
vertex 16.4 2.8 1.0
vertex 12.6 2.8 1.0
vertex 8.8 1.7999999999999998 1.0
endloop
endfacet
facet normal -0.0 0.0 1.0
outer loop
vertex 8.8 1.7999999999999998 1.0
vertex 0.0 0.5 1.0
vertex 29.5 0.5 1.0
endloop
endfacet
facet normal 0.0 -0.0 1.0
outer loop
vertex 29.5 0.5 1.0
vertex 29.5 5.3 1.0
vertex 24.0 3.8 1.0
endloop
endfacet
facet normal 0.0 0.0 1.0
outer loop
vertex 24.0 3.8 1.0
vertex 20.2 4.8 1.0
vertex 16.4 2.8 1.0
endloop
endfacet
facet normal 0.0 0.0 1.0
outer loop
vertex 16.4 2.8 1.0
vertex 8.8 1.7999999999999998 1.0
vertex 29.5 0.5 1.0
endloop
endfacet
facet normal 0.0 0.0 1.0
outer loop
vertex 29.5 0.5 1.0
vertex 24.0 3.8 1.0
vertex 16.4 2.8 1.0
endloop
endfacet
facet normal 0.7071067811865475 0.7071067811865478 0.0
outer loop
vertex 14.499999999999998 4.699999999999999 1.0
vertex 16.4 2.8 1.0
vertex 14.499999999999998 4.699999999999999 0.0
endloop
endfacet
facet normal 0.7071067811865475 0.7071067811865478 0.0
outer loop
vertex 14.499999999999998 4.699999999999999 0.0
vertex 16.4 2.8 1.0
vertex 16.4 2.8 0.0
endloop
endfacet
facet normal -0.7071067811865475 0.7071067811865475 0.0
outer loop
vertex 16.4 2.8 1.0
vertex 18.9 5.3 1.0
vertex 16.4 2.8 0.0
endloop
endfacet
facet normal -0.7071067811865475 0.7071067811865475 0.0
outer loop
vertex 16.4 2.8 0.0
vertex 18.9 5.3 1.0
vertex 18.9 5.3 0.0
endloop
endfacet
facet normal -0.0 1.0 0.0
outer loop
vertex 18.9 5.3 1.0
vertex 19.7 5.3 1.0
vertex 18.9 5.3 0.0
endloop
endfacet
facet normal -0.0 1.0 0.0
outer loop
vertex 18.9 5.3 0.0
vertex 19.7 5.3 1.0
vertex 19.7 5.3 0.0
endloop
endfacet
facet normal 0.7071067811865475 0.7071067811865475 0.0
outer loop
vertex 19.7 5.3 1.0
vertex 20.2 4.8 1.0
vertex 19.7 5.3 0.0
endloop
endfacet
facet normal 0.7071067811865475 0.7071067811865475 0.0
outer loop
vertex 19.7 5.3 0.0
vertex 20.2 4.8 1.0
vertex 20.2 4.8 0.0
endloop
endfacet
facet normal -0.7071067811865475 0.7071067811865475 0.0
outer loop
vertex 20.2 4.8 1.0
vertex 20.7 5.3 1.0
vertex 20.2 4.8 0.0
endloop
endfacet
facet normal -0.7071067811865475 0.7071067811865475 0.0
outer loop
vertex 20.2 4.8 0.0
vertex 20.7 5.3 1.0
vertex 20.7 5.3 0.0
endloop
endfacet
facet normal -0.0 1.0 0.0
outer loop
vertex 20.7 5.3 1.0
vertex 22.5 5.3 1.0
vertex 20.7 5.3 0.0
endloop
endfacet
facet normal -0.0 1.0 0.0
outer loop
vertex 20.7 5.3 0.0
vertex 22.5 5.3 1.0
vertex 22.5 5.3 0.0
endloop
endfacet
facet normal 0.7071067811865476 0.7071067811865476 0.0
outer loop
vertex 22.5 5.3 1.0
vertex 24.0 3.8 1.0
vertex 22.5 5.3 0.0
endloop
endfacet
facet normal 0.7071067811865476 0.7071067811865476 0.0
outer loop
vertex 22.5 5.3 0.0
vertex 24.0 3.8 1.0
vertex 24.0 3.8 0.0
endloop
endfacet
facet normal -0.7071067811865476 0.7071067811865476 0.0
outer loop
vertex 24.0 3.8 1.0
vertex 25.5 5.3 1.0
vertex 24.0 3.8 0.0
endloop
endfacet
facet normal -0.7071067811865476 0.7071067811865476 0.0
outer loop
vertex 24.0 3.8 0.0
vertex 25.5 5.3 1.0
vertex 25.5 5.3 0.0
endloop
endfacet
facet normal -0.0 1.0 0.0
outer loop
vertex 25.5 5.3 1.0
vertex 29.5 5.3 1.0
vertex 25.5 5.3 0.0
endloop
endfacet
facet normal -0.0 1.0 0.0
outer loop
vertex 25.5 5.3 0.0
vertex 29.5 5.3 1.0
vertex 29.5 5.3 0.0
endloop
endfacet
facet normal -1.0 0.0 -0.0
outer loop
vertex 29.5 5.3 1.0
vertex 29.5 10.3 1.0
vertex 29.5 5.3 0.0
endloop
endfacet
facet normal -1.0 0.0 0.0
outer loop
vertex 29.5 5.3 0.0
vertex 29.5 10.3 1.0
vertex 29.5 10.3 0.0
endloop
endfacet
facet normal -0.0 1.0 0.0
outer loop
vertex 29.5 10.3 1.0
vertex 39.5 10.3 1.0
vertex 29.5 10.3 0.0
endloop
endfacet
facet normal -0.0 1.0 0.0
outer loop
vertex 29.5 10.3 0.0
vertex 39.5 10.3 1.0
vertex 39.5 10.3 0.0
endloop
endfacet
facet normal 1.0 0.0 0.0
outer loop
vertex 39.5 10.3 1.0
vertex 39.5 0.5 1.0
vertex 39.5 10.3 0.0
endloop
endfacet
facet normal 1.0 0.0 0.0
outer loop
vertex 39.5 10.3 0.0
vertex 39.5 0.5 1.0
vertex 39.5 0.5 0.0
endloop
endfacet
facet normal -0.0 -1.0 -0.0
outer loop
vertex 39.5 0.5 1.0
vertex 29.5 0.5 1.0
vertex 39.5 0.5 0.0
endloop
endfacet
facet normal -0.0 -1.0 -0.0
outer loop
vertex 39.5 0.5 0.0
vertex 29.5 0.5 1.0
vertex 29.5 0.5 0.0
endloop
endfacet
facet normal -0.0 -1.0 -0.0
outer loop
vertex 29.5 0.5 1.0
vertex 0.0 0.5 1.0
vertex 29.5 0.5 0.0
endloop
endfacet
facet normal -0.0 -1.0 -0.0
outer loop
vertex 29.5 0.5 0.0
vertex 0.0 0.5 1.0
vertex 0.0 0.5 0.0
endloop
endfacet
facet normal -0.702953436937675 0.7112358719141703 0.0
outer loop
vertex 0.0 0.5 1.0
vertex 4.174305165466398 4.6256948345336015 1.0
vertex 0.0 0.5 0.0
endloop
endfacet
facet normal -0.702953436937675 0.7112358719141703 0.0
outer loop
vertex 0.0 0.5 0.0
vertex 4.174305165466398 4.6256948345336015 1.0
vertex 4.174305165466398 4.6256948345336015 0.0
endloop
endfacet
facet normal 0.7071067811865476 0.7071067811865476 0.0
outer loop
vertex 4.174305165466398 4.6256948345336015 1.0
vertex 5.0 3.8 1.0
vertex 4.174305165466398 4.6256948345336015 0.0
endloop
endfacet
facet normal 0.7071067811865476 0.7071067811865476 0.0
outer loop
vertex 4.174305165466398 4.6256948345336015 0.0
vertex 5.0 3.8 1.0
vertex 5.0 3.8 0.0
endloop
endfacet
facet normal -0.7071067811865477 0.7071067811865477 0.0
outer loop
vertex 5.0 3.8 1.0
vertex 5.9 4.7 1.0
vertex 5.0 3.8 0.0
endloop
endfacet
facet normal -0.7071067811865477 0.7071067811865477 0.0
outer loop
vertex 5.0 3.8 0.0
vertex 5.9 4.7 1.0
vertex 5.9 4.7 0.0
endloop
endfacet
facet normal 0.7071067811865475 0.7071067811865475 0.0
outer loop
vertex 5.9 4.7 1.0
vertex 8.8 1.7999999999999998 1.0
vertex 5.9 4.7 0.0
endloop
endfacet
facet normal 0.7071067811865475 0.7071067811865475 0.0
outer loop
vertex 5.9 4.7 0.0
vertex 8.8 1.7999999999999998 1.0
vertex 8.8 1.7999999999999998 0.0
endloop
endfacet
facet normal -0.7071067811865477 0.7071067811865474 0.0
outer loop
vertex 8.8 1.7999999999999998 1.0
vertex 11.2 4.199999999999999 1.0
vertex 8.8 1.7999999999999998 0.0
endloop
endfacet
facet normal -0.7071067811865477 0.7071067811865474 0.0
outer loop
vertex 8.8 1.7999999999999998 0.0
vertex 11.2 4.199999999999999 1.0
vertex 11.2 4.199999999999999 0.0
endloop
endfacet
facet normal -0.7071067811865477 0.7071067811865474 0.0
outer loop
vertex 12.6 2.8 1.0
vertex 14.499999999999998 4.699999999999999 1.0
vertex 12.6 2.8 0.0
endloop
endfacet
facet normal -0.7071067811865477 0.7071067811865474 0.0
outer loop
vertex 12.6 2.8 0.0
vertex 14.499999999999998 4.699999999999999 1.0
vertex 14.499999999999998 4.699999999999999 0.0
endloop
endfacet
facet normal 0.7071067811865474 0.7071067811865478 0.0
outer loop
vertex 11.2 4.199999999999999 1.0
vertex 12.6 2.8 1.0
vertex 11.2 4.199999999999999 0.0
endloop
endfacet
facet normal 0.7071067811865474 0.7071067811865478 0.0
outer loop
vertex 11.2 4.199999999999999 0.0
vertex 12.6 2.8 1.0
vertex 12.6 2.8 0.0
endloop
endfacet

endsolid
