solid 
facet normal 0.0 0.0 -0.9999999999999999
outer loop
vertex 8.8 1.7999999999999998 0.0
vertex 11.2 4.199999999999999 0.0
vertex 12.6 2.8 0.0
endloop
endfacet
facet normal 0.0 0.0 -1.0
outer loop
vertex 5.0 4.8 0.0
vertex 5.4 5.2 0.0
vertex 8.8 1.7999999999999998 0.0
endloop
endfacet
facet normal 0.0 0.0 -1.0
outer loop
vertex 0.0 0.5 0.0
vertex 4.677233498655121 5.122766501344879 0.0
vertex 5.0 4.8 0.0
endloop
endfacet
facet normal -0.0 -0.0 -0.9999999999999999
outer loop
vertex 39.5 10.3 0.0
vertex 39.5 0.5 0.0
vertex 29.5 0.5 0.0
endloop
endfacet
facet normal 0.0 0.0 -1.0
outer loop
vertex 29.5 5.3 0.0
vertex 29.5 10.3 0.0
vertex 39.5 10.3 0.0
endloop
endfacet
facet normal 0.0 0.0 -1.0
outer loop
vertex 24.0 3.8 0.0
vertex 25.5 5.3 0.0
vertex 29.5 5.3 0.0
endloop
endfacet
facet normal 0.0 0.0 -1.0
outer loop
vertex 20.2 1.7999999999999998 0.0
vertex 23.099999999999998 4.7 0.0
vertex 24.0 3.8 0.0
endloop
endfacet
facet normal 0.0 0.0 -1.0
outer loop
vertex 16.4 1.7999999999999998 0.0
vertex 18.299999999999997 3.7 0.0
vertex 20.2 1.7999999999999998 0.0
endloop
endfacet
facet normal 0.0 0.0 -1.0
outer loop
vertex 12.6 2.8 0.0
vertex 13.999999999999998 4.199999999999999 0.0
vertex 16.4 1.7999999999999998 0.0
endloop
endfacet
facet normal 0.0 0.0 -1.0
outer loop
vertex 0.0 0.5 0.0
vertex 5.0 4.8 0.0
vertex 8.8 1.7999999999999998 0.0
endloop
endfacet
facet normal 0.0 -0.0 -1.0
outer loop
vertex 29.5 5.3 0.0
vertex 39.5 10.3 0.0
vertex 29.5 0.5 0.0
endloop
endfacet
facet normal 0.0 0.0 -1.0
outer loop
vertex 20.2 1.7999999999999998 0.0
vertex 24.0 3.8 0.0
vertex 29.5 5.3 0.0
endloop
endfacet
facet normal 0.0 0.0 -1.0
outer loop
vertex 8.8 1.7999999999999998 0.0
vertex 12.6 2.8 0.0
vertex 16.4 1.7999999999999998 0.0
endloop
endfacet
facet normal 0.0 0.0 -1.0
outer loop
vertex 29.5 0.5 0.0
vertex 0.0 0.5 0.0
vertex 8.8 1.7999999999999998 0.0
endloop
endfacet
facet normal 0.0 0.0 -1.0
outer loop
vertex 20.2 1.7999999999999998 0.0
vertex 29.5 5.3 0.0
vertex 29.5 0.5 0.0
endloop
endfacet
facet normal 0.0 0.0 -1.0
outer loop
vertex 29.5 0.5 0.0
vertex 8.8 1.7999999999999998 0.0
vertex 16.4 1.7999999999999998 0.0
endloop
endfacet
facet normal 0.0 0.0 -1.0
outer loop
vertex 16.4 1.7999999999999998 0.0
vertex 20.2 1.7999999999999998 0.0
vertex 29.5 0.5 0.0
endloop
endfacet
facet normal 0.0 0.0 0.9999999999999999
outer loop
vertex 12.6 2.8 1.0
vertex 11.2 4.199999999999999 1.0
vertex 8.8 1.7999999999999998 1.0
endloop
endfacet
facet normal 0.0 0.0 1.0
outer loop
vertex 8.8 1.7999999999999998 1.0
vertex 5.4 5.2 1.0
vertex 5.0 4.8 1.0
endloop
endfacet
facet normal 0.0 0.0 1.0
outer loop
vertex 5.0 4.8 1.0
vertex 4.677233498655121 5.122766501344879 1.0
vertex 0.0 0.5 1.0
endloop
endfacet
facet normal 0.0 0.0 0.9999999999999999
outer loop
vertex 29.5 0.5 1.0
vertex 39.5 0.5 1.0
vertex 39.5 10.3 1.0
endloop
endfacet
facet normal 0.0 0.0 1.0
outer loop
vertex 39.5 10.3 1.0
vertex 29.5 10.3 1.0
vertex 29.5 5.3 1.0
endloop
endfacet
facet normal 0.0 0.0 1.0
outer loop
vertex 29.5 5.3 1.0
vertex 25.5 5.3 1.0
vertex 24.0 3.8 1.0
endloop
endfacet
facet normal 0.0 0.0 1.0
outer loop
vertex 24.0 3.8 1.0
vertex 23.099999999999998 4.7 1.0
vertex 20.2 1.7999999999999998 1.0
endloop
endfacet
facet normal 0.0 0.0 1.0
outer loop
vertex 20.2 1.7999999999999998 1.0
vertex 18.299999999999997 3.7 1.0
vertex 16.4 1.7999999999999998 1.0
endloop
endfacet
facet normal 0.0 0.0 1.0
outer loop
vertex 16.4 1.7999999999999998 1.0
vertex 13.999999999999998 4.199999999999999 1.0
vertex 12.6 2.8 1.0
endloop
endfacet
facet normal 0.0 0.0 1.0
outer loop
vertex 8.8 1.7999999999999998 1.0
vertex 5.0 4.8 1.0
vertex 0.0 0.5 1.0
endloop
endfacet
facet normal 0.0 -0.0 1.0
outer loop
vertex 29.5 0.5 1.0
vertex 39.5 10.3 1.0
vertex 29.5 5.3 1.0
endloop
endfacet
facet normal 0.0 0.0 1.0
outer loop
vertex 29.5 5.3 1.0
vertex 24.0 3.8 1.0
vertex 20.2 1.7999999999999998 1.0
endloop
endfacet
facet normal 0.0 0.0 1.0
outer loop
vertex 16.4 1.7999999999999998 1.0
vertex 12.6 2.8 1.0
vertex 8.8 1.7999999999999998 1.0
endloop
endfacet
facet normal -0.0 0.0 1.0
outer loop
vertex 8.8 1.7999999999999998 1.0
vertex 0.0 0.5 1.0
vertex 29.5 0.5 1.0
endloop
endfacet
facet normal 0.0 -0.0 1.0
outer loop
vertex 29.5 0.5 1.0
vertex 29.5 5.3 1.0
vertex 20.2 1.7999999999999998 1.0
endloop
endfacet
facet normal 0.0 0.0 1.0
outer loop
vertex 16.4 1.7999999999999998 1.0
vertex 8.8 1.7999999999999998 1.0
vertex 29.5 0.5 1.0
endloop
endfacet
facet normal 0.0 0.0 1.0
outer loop
vertex 29.5 0.5 1.0
vertex 20.2 1.7999999999999998 1.0
vertex 16.4 1.7999999999999998 1.0
endloop
endfacet
facet normal 0.7071067811865474 0.7071067811865477 0.0
outer loop
vertex 13.999999999999998 4.199999999999999 1.0
vertex 16.4 1.7999999999999998 1.0
vertex 13.999999999999998 4.199999999999999 0.0
endloop
endfacet
facet normal 0.7071067811865474 0.7071067811865477 0.0
outer loop
vertex 13.999999999999998 4.199999999999999 0.0
vertex 16.4 1.7999999999999998 1.0
vertex 16.4 1.7999999999999998 0.0
endloop
endfacet
facet normal -0.7071067811865479 0.7071067811865472 0.0
outer loop
vertex 16.4 1.7999999999999998 1.0
vertex 18.299999999999997 3.7 1.0
vertex 16.4 1.7999999999999998 0.0
endloop
endfacet
facet normal -0.7071067811865479 0.7071067811865472 0.0
outer loop
vertex 16.4 1.7999999999999998 0.0
vertex 18.299999999999997 3.7 1.0
vertex 18.299999999999997 3.7 0.0
endloop
endfacet
facet normal 0.7071067811865471 0.7071067811865478 0.0
outer loop
vertex 18.299999999999997 3.7 1.0
vertex 20.2 1.7999999999999998 1.0
vertex 18.299999999999997 3.7 0.0
endloop
endfacet
facet normal 0.7071067811865471 0.7071067811865478 0.0
outer loop
vertex 18.299999999999997 3.7 0.0
vertex 20.2 1.7999999999999998 1.0
vertex 20.2 1.7999999999999998 0.0
endloop
endfacet
facet normal -0.7071067811865478 0.7071067811865474 0.0
outer loop
vertex 20.2 1.7999999999999998 1.0
vertex 23.099999999999998 4.7 1.0
vertex 20.2 1.7999999999999998 0.0
endloop
endfacet
facet normal -0.7071067811865478 0.7071067811865474 0.0
outer loop
vertex 20.2 1.7999999999999998 0.0
vertex 23.099999999999998 4.7 1.0
vertex 23.099999999999998 4.7 0.0
endloop
endfacet
facet normal 0.7071067811865468 0.7071067811865482 0.0
outer loop
vertex 23.099999999999998 4.7 1.0
vertex 24.0 3.8 1.0
vertex 23.099999999999998 4.7 0.0
endloop
endfacet
facet normal 0.7071067811865468 0.7071067811865482 0.0
outer loop
vertex 23.099999999999998 4.7 0.0
vertex 24.0 3.8 1.0
vertex 24.0 3.8 0.0
endloop
endfacet
facet normal -0.7071067811865476 0.7071067811865476 0.0
outer loop
vertex 24.0 3.8 1.0
vertex 25.5 5.3 1.0
vertex 24.0 3.8 0.0
endloop
endfacet
facet normal -0.7071067811865476 0.7071067811865476 0.0
outer loop
vertex 24.0 3.8 0.0
vertex 25.5 5.3 1.0
vertex 25.5 5.3 0.0
endloop
endfacet
facet normal -0.0 1.0 0.0
outer loop
vertex 25.5 5.3 1.0
vertex 29.5 5.3 1.0
vertex 25.5 5.3 0.0
endloop
endfacet
facet normal -0.0 1.0 0.0
outer loop
vertex 25.5 5.3 0.0
vertex 29.5 5.3 1.0
vertex 29.5 5.3 0.0
endloop
endfacet
facet normal -1.0 0.0 -0.0
outer loop
vertex 29.5 5.3 1.0
vertex 29.5 10.3 1.0
vertex 29.5 5.3 0.0
endloop
endfacet
facet normal -1.0 0.0 0.0
outer loop
vertex 29.5 5.3 0.0
vertex 29.5 10.3 1.0
vertex 29.5 10.3 0.0
endloop
endfacet
facet normal -0.0 1.0 0.0
outer loop
vertex 29.5 10.3 1.0
vertex 39.5 10.3 1.0
vertex 29.5 10.3 0.0
endloop
endfacet
facet normal -0.0 1.0 0.0
outer loop
vertex 29.5 10.3 0.0
vertex 39.5 10.3 1.0
vertex 39.5 10.3 0.0
endloop
endfacet
facet normal 1.0 0.0 0.0
outer loop
vertex 39.5 10.3 1.0
vertex 39.5 0.5 1.0
vertex 39.5 10.3 0.0
endloop
endfacet
facet normal 1.0 0.0 0.0
outer loop
vertex 39.5 10.3 0.0
vertex 39.5 0.5 1.0
vertex 39.5 0.5 0.0
endloop
endfacet
facet normal -0.0 -1.0 -0.0
outer loop
vertex 39.5 0.5 1.0
vertex 29.5 0.5 1.0
vertex 39.5 0.5 0.0
endloop
endfacet
facet normal -0.0 -1.0 -0.0
outer loop
vertex 39.5 0.5 0.0
vertex 29.5 0.5 1.0
vertex 29.5 0.5 0.0
endloop
endfacet
facet normal -0.0 -1.0 -0.0
outer loop
vertex 29.5 0.5 1.0
vertex 0.0 0.5 1.0
vertex 29.5 0.5 0.0
endloop
endfacet
facet normal -0.0 -1.0 -0.0
outer loop
vertex 29.5 0.5 0.0
vertex 0.0 0.5 1.0
vertex 0.0 0.5 0.0
endloop
endfacet
facet normal -0.702953436937675 0.7112358719141704 0.0
outer loop
vertex 0.0 0.5 1.0
vertex 4.677233498655121 5.122766501344879 1.0
vertex 0.0 0.5 0.0
endloop
endfacet
facet normal -0.702953436937675 0.7112358719141704 0.0
outer loop
vertex 0.0 0.5 0.0
vertex 4.677233498655121 5.122766501344879 1.0
vertex 4.677233498655121 5.122766501344879 0.0
endloop
endfacet
facet normal 0.7071067811865475 0.7071067811865475 0.0
outer loop
vertex 4.677233498655121 5.122766501344879 1.0
vertex 5.0 4.8 1.0
vertex 4.677233498655121 5.122766501344879 0.0
endloop
endfacet
facet normal 0.7071067811865475 0.7071067811865475 0.0
outer loop
vertex 4.677233498655121 5.122766501344879 0.0
vertex 5.0 4.8 1.0
vertex 5.0 4.8 0.0
endloop
endfacet
facet normal -0.7071067811865475 0.7071067811865475 0.0
outer loop
vertex 5.0 4.8 1.0
vertex 5.4 5.2 1.0
vertex 5.0 4.8 0.0
endloop
endfacet
facet normal -0.7071067811865475 0.7071067811865475 0.0
outer loop
vertex 5.0 4.8 0.0
vertex 5.4 5.2 1.0
vertex 5.4 5.2 0.0
endloop
endfacet
facet normal 0.7071067811865476 0.7071067811865476 0.0
outer loop
vertex 5.4 5.2 1.0
vertex 8.8 1.7999999999999998 1.0
vertex 5.4 5.2 0.0
endloop
endfacet
facet normal 0.7071067811865476 0.7071067811865476 0.0
outer loop
vertex 5.4 5.2 0.0
vertex 8.8 1.7999999999999998 1.0
vertex 8.8 1.7999999999999998 0.0
endloop
endfacet
facet normal -0.7071067811865477 0.7071067811865474 0.0
outer loop
vertex 8.8 1.7999999999999998 1.0
vertex 11.2 4.199999999999999 1.0
vertex 8.8 1.7999999999999998 0.0
endloop
endfacet
facet normal -0.7071067811865477 0.7071067811865474 0.0
outer loop
vertex 8.8 1.7999999999999998 0.0
vertex 11.2 4.199999999999999 1.0
vertex 11.2 4.199999999999999 0.0
endloop
endfacet
facet normal -0.7071067811865478 0.7071067811865474 0.0
outer loop
vertex 12.6 2.8 1.0
vertex 13.999999999999998 4.199999999999999 1.0
vertex 12.6 2.8 0.0
endloop
endfacet
facet normal -0.7071067811865478 0.7071067811865474 0.0
outer loop
vertex 12.6 2.8 0.0
vertex 13.999999999999998 4.199999999999999 1.0
vertex 13.999999999999998 4.199999999999999 0.0
endloop
endfacet
facet normal 0.7071067811865474 0.7071067811865478 0.0
outer loop
vertex 11.2 4.199999999999999 1.0
vertex 12.6 2.8 1.0
vertex 11.2 4.199999999999999 0.0
endloop
endfacet
facet normal 0.7071067811865474 0.7071067811865478 0.0
outer loop
vertex 11.2 4.199999999999999 0.0
vertex 12.6 2.8 1.0
vertex 12.6 2.8 0.0
endloop
endfacet

endsolid
