solid 
facet normal 0.0 0.0 -1.0
outer loop
vertex 8.8 4.8 0.0
vertex 9.3 5.3 0.0
vertex 11.1 5.3 0.0
endloop
endfacet
facet normal 0.0 0.0 -1.0
outer loop
vertex 7.5 5.3 0.0
vertex 8.3 5.3 0.0
vertex 8.8 4.8 0.0
endloop
endfacet
facet normal 0.0 0.0 -1.0
outer loop
vertex 0.0 0.5 0.0
vertex 3.6713768322776756 4.128623167722324 0.0
vertex 5.0 2.8 0.0
endloop
endfacet
facet normal -0.0 -0.0 -0.9999999999999999
outer loop
vertex 39.5 10.3 0.0
vertex 39.5 0.5 0.0
vertex 29.5 0.5 0.0
endloop
endfacet
facet normal 0.0 0.0 -1.0
outer loop
vertex 29.5 5.3 0.0
vertex 29.5 10.3 0.0
vertex 39.5 10.3 0.0
endloop
endfacet
facet normal 0.0 0.0 -1.0
outer loop
vertex 24.0 2.8 0.0
vertex 26.5 5.3 0.0
vertex 29.5 5.3 0.0
endloop
endfacet
facet normal 0.0 0.0 -1.0
outer loop
vertex 20.7 5.3 0.0
vertex 21.5 5.3 0.0
vertex 24.0 2.8 0.0
endloop
endfacet
facet normal 0.0 0.0 -1.0
outer loop
vertex 17.9 5.3 0.0
vertex 19.7 5.3 0.0
vertex 20.2 4.8 0.0
endloop
endfacet
facet normal 0.0 0.0 -1.0
outer loop
vertex 14.1 5.3 0.0
vertex 14.899999999999999 5.3 0.0
vertex 16.4 3.8 0.0
endloop
endfacet
facet normal 0.0 0.0 -1.0
outer loop
vertex 8.8 4.8 0.0
vertex 11.1 5.3 0.0
vertex 12.6 3.8 0.0
endloop
endfacet
facet normal 0.0 0.0 -1.0
outer loop
vertex 5.0 2.8 0.0
vertex 7.5 5.3 0.0
vertex 8.8 4.8 0.0
endloop
endfacet
facet normal 0.0 0.0 -1.0
outer loop
vertex 29.5 0.5 0.0
vertex 0.0 0.5 0.0
vertex 5.0 2.8 0.0
endloop
endfacet
facet normal 0.0 -0.0 -1.0
outer loop
vertex 29.5 5.3 0.0
vertex 39.5 10.3 0.0
vertex 29.5 0.5 0.0
endloop
endfacet
facet normal 0.0 0.0 -1.0
outer loop
vertex 20.2 4.8 0.0
vertex 20.7 5.3 0.0
vertex 24.0 2.8 0.0
endloop
endfacet
facet normal 0.0 0.0 -1.0
outer loop
vertex 16.4 3.8 0.0
vertex 17.9 5.3 0.0
vertex 20.2 4.8 0.0
endloop
endfacet
facet normal 0.0 0.0 -1.0
outer loop
vertex 12.6 3.8 0.0
vertex 14.1 5.3 0.0
vertex 16.4 3.8 0.0
endloop
endfacet
facet normal 0.0 0.0 -1.0
outer loop
vertex 5.0 2.8 0.0
vertex 8.8 4.8 0.0
vertex 12.6 3.8 0.0
endloop
endfacet
facet normal 0.0 0.0 -1.0
outer loop
vertex 24.0 2.8 0.0
vertex 29.5 5.3 0.0
vertex 29.5 0.5 0.0
endloop
endfacet
facet normal 0.0 0.0 -1.0
outer loop
vertex 16.4 3.8 0.0
vertex 20.2 4.8 0.0
vertex 24.0 2.8 0.0
endloop
endfacet
facet normal 0.0 0.0 -1.0
outer loop
vertex 5.0 2.8 0.0
vertex 12.6 3.8 0.0
vertex 16.4 3.8 0.0
endloop
endfacet
facet normal -0.0 -0.0 -1.0
outer loop
vertex 24.0 2.8 0.0
vertex 29.5 0.5 0.0
vertex 5.0 2.8 0.0
endloop
endfacet
facet normal 0.0 0.0 -1.0
outer loop
vertex 5.0 2.8 0.0
vertex 16.4 3.8 0.0
vertex 24.0 2.8 0.0
endloop
endfacet
facet normal 0.0 0.0 1.0
outer loop
vertex 11.1 5.3 1.0
vertex 9.3 5.3 1.0
vertex 8.8 4.8 1.0
endloop
endfacet
facet normal 0.0 0.0 1.0
outer loop
vertex 8.8 4.8 1.0
vertex 8.3 5.3 1.0
vertex 7.5 5.3 1.0
endloop
endfacet
facet normal 0.0 0.0 1.0
outer loop
vertex 5.0 2.8 1.0
vertex 3.6713768322776756 4.128623167722324 1.0
vertex 0.0 0.5 1.0
endloop
endfacet
facet normal 0.0 0.0 0.9999999999999999
outer loop
vertex 29.5 0.5 1.0
vertex 39.5 0.5 1.0
vertex 39.5 10.3 1.0
endloop
endfacet
facet normal 0.0 0.0 1.0
outer loop
vertex 39.5 10.3 1.0
vertex 29.5 10.3 1.0
vertex 29.5 5.3 1.0
endloop
endfacet
facet normal 0.0 0.0 1.0
outer loop
vertex 29.5 5.3 1.0
vertex 26.5 5.3 1.0
vertex 24.0 2.8 1.0
endloop
endfacet
facet normal 0.0 0.0 1.0
outer loop
vertex 24.0 2.8 1.0
vertex 21.5 5.3 1.0
vertex 20.7 5.3 1.0
endloop
endfacet
facet normal 0.0 0.0 1.0
outer loop
vertex 20.2 4.8 1.0
vertex 19.7 5.3 1.0
vertex 17.9 5.3 1.0
endloop
endfacet
facet normal 0.0 0.0 1.0
outer loop
vertex 16.4 3.8 1.0
vertex 14.899999999999999 5.3 1.0
vertex 14.1 5.3 1.0
endloop
endfacet
facet normal 0.0 0.0 1.0
outer loop
vertex 12.6 3.8 1.0
vertex 11.1 5.3 1.0
vertex 8.8 4.8 1.0
endloop
endfacet
facet normal 0.0 0.0 1.0
outer loop
vertex 8.8 4.8 1.0
vertex 7.5 5.3 1.0
vertex 5.0 2.8 1.0
endloop
endfacet
facet normal -0.0 0.0 1.0
outer loop
vertex 5.0 2.8 1.0
vertex 0.0 0.5 1.0
vertex 29.5 0.5 1.0
endloop
endfacet
facet normal 0.0 -0.0 1.0
outer loop
vertex 29.5 0.5 1.0
vertex 39.5 10.3 1.0
vertex 29.5 5.3 1.0
endloop
endfacet
facet normal 0.0 0.0 1.0
outer loop
vertex 24.0 2.8 1.0
vertex 20.7 5.3 1.0
vertex 20.2 4.8 1.0
endloop
endfacet
facet normal 0.0 0.0 1.0
outer loop
vertex 20.2 4.8 1.0
vertex 17.9 5.3 1.0
vertex 16.4 3.8 1.0
endloop
endfacet
facet normal 0.0 0.0 1.0
outer loop
vertex 16.4 3.8 1.0
vertex 14.1 5.3 1.0
vertex 12.6 3.8 1.0
endloop
endfacet
facet normal 0.0 0.0 1.0
outer loop
vertex 12.6 3.8 1.0
vertex 8.8 4.8 1.0
vertex 5.0 2.8 1.0
endloop
endfacet
facet normal 0.0 -0.0 1.0
outer loop
vertex 29.5 0.5 1.0
vertex 29.5 5.3 1.0
vertex 24.0 2.8 1.0
endloop
endfacet
facet normal 0.0 0.0 1.0
outer loop
vertex 24.0 2.8 1.0
vertex 20.2 4.8 1.0
vertex 16.4 3.8 1.0
endloop
endfacet
facet normal 0.0 0.0 1.0
outer loop
vertex 16.4 3.8 1.0
vertex 12.6 3.8 1.0
vertex 5.0 2.8 1.0
endloop
endfacet
facet normal -0.0 -0.0 1.0
outer loop
vertex 5.0 2.8 1.0
vertex 29.5 0.5 1.0
vertex 24.0 2.8 1.0
endloop
endfacet
facet normal 0.0 0.0 1.0
outer loop
vertex 24.0 2.8 1.0
vertex 16.4 3.8 1.0
vertex 5.0 2.8 1.0
endloop
endfacet
facet normal 0.7071067811865476 0.7071067811865476 0.0
outer loop
vertex 11.1 5.3 1.0
vertex 12.6 3.8 1.0
vertex 11.1 5.3 0.0
endloop
endfacet
facet normal 0.7071067811865476 0.7071067811865476 0.0
outer loop
vertex 11.1 5.3 0.0
vertex 12.6 3.8 1.0
vertex 12.6 3.8 0.0
endloop
endfacet
facet normal -0.7071067811865476 0.7071067811865476 0.0
outer loop
vertex 12.6 3.8 1.0
vertex 14.1 5.3 1.0
vertex 12.6 3.8 0.0
endloop
endfacet
facet normal -0.7071067811865476 0.7071067811865476 0.0
outer loop
vertex 12.6 3.8 0.0
vertex 14.1 5.3 1.0
vertex 14.1 5.3 0.0
endloop
endfacet
facet normal -0.0 1.0 0.0
outer loop
vertex 14.1 5.3 1.0
vertex 14.899999999999999 5.3 1.0
vertex 14.1 5.3 0.0
endloop
endfacet
facet normal -0.0 1.0 0.0
outer loop
vertex 14.1 5.3 0.0
vertex 14.899999999999999 5.3 1.0
vertex 14.899999999999999 5.3 0.0
endloop
endfacet
facet normal 0.7071067811865476 0.7071067811865476 0.0
outer loop
vertex 14.899999999999999 5.3 1.0
vertex 16.4 3.8 1.0
vertex 14.899999999999999 5.3 0.0
endloop
endfacet
facet normal 0.7071067811865476 0.7071067811865476 0.0
outer loop
vertex 14.899999999999999 5.3 0.0
vertex 16.4 3.8 1.0
vertex 16.4 3.8 0.0
endloop
endfacet
facet normal -0.7071067811865476 0.7071067811865476 0.0
outer loop
vertex 16.4 3.8 1.0
vertex 17.9 5.3 1.0
vertex 16.4 3.8 0.0
endloop
endfacet
facet normal -0.7071067811865476 0.7071067811865476 0.0
outer loop
vertex 16.4 3.8 0.0
vertex 17.9 5.3 1.0
vertex 17.9 5.3 0.0
endloop
endfacet
facet normal -0.0 1.0 0.0
outer loop
vertex 17.9 5.3 1.0
vertex 19.7 5.3 1.0
vertex 17.9 5.3 0.0
endloop
endfacet
facet normal -0.0 1.0 0.0
outer loop
vertex 17.9 5.3 0.0
vertex 19.7 5.3 1.0
vertex 19.7 5.3 0.0
endloop
endfacet
facet normal 0.7071067811865475 0.7071067811865475 0.0
outer loop
vertex 19.7 5.3 1.0
vertex 20.2 4.8 1.0
vertex 19.7 5.3 0.0
endloop
endfacet
facet normal 0.7071067811865475 0.7071067811865475 0.0
outer loop
vertex 19.7 5.3 0.0
vertex 20.2 4.8 1.0
vertex 20.2 4.8 0.0
endloop
endfacet
facet normal -0.7071067811865475 0.7071067811865475 0.0
outer loop
vertex 20.2 4.8 1.0
vertex 20.7 5.3 1.0
vertex 20.2 4.8 0.0
endloop
endfacet
facet normal -0.7071067811865475 0.7071067811865475 0.0
outer loop
vertex 20.2 4.8 0.0
vertex 20.7 5.3 1.0
vertex 20.7 5.3 0.0
endloop
endfacet
facet normal -0.0 1.0 0.0
outer loop
vertex 20.7 5.3 1.0
vertex 21.5 5.3 1.0
vertex 20.7 5.3 0.0
endloop
endfacet
facet normal -0.0 1.0 0.0
outer loop
vertex 20.7 5.3 0.0
vertex 21.5 5.3 1.0
vertex 21.5 5.3 0.0
endloop
endfacet
facet normal 0.7071067811865475 0.7071067811865475 0.0
outer loop
vertex 21.5 5.3 1.0
vertex 24.0 2.8 1.0
vertex 21.5 5.3 0.0
endloop
endfacet
facet normal 0.7071067811865475 0.7071067811865475 0.0
outer loop
vertex 21.5 5.3 0.0
vertex 24.0 2.8 1.0
vertex 24.0 2.8 0.0
endloop
endfacet
facet normal -0.7071067811865475 0.7071067811865475 0.0
outer loop
vertex 24.0 2.8 1.0
vertex 26.5 5.3 1.0
vertex 24.0 2.8 0.0
endloop
endfacet
facet normal -0.7071067811865475 0.7071067811865475 0.0
outer loop
vertex 24.0 2.8 0.0
vertex 26.5 5.3 1.0
vertex 26.5 5.3 0.0
endloop
endfacet
facet normal -0.0 1.0 0.0
outer loop
vertex 26.5 5.3 1.0
vertex 29.5 5.3 1.0
vertex 26.5 5.3 0.0
endloop
endfacet
facet normal -0.0 1.0 0.0
outer loop
vertex 26.5 5.3 0.0
vertex 29.5 5.3 1.0
vertex 29.5 5.3 0.0
endloop
endfacet
facet normal -1.0 0.0 -0.0
outer loop
vertex 29.5 5.3 1.0
vertex 29.5 10.3 1.0
vertex 29.5 5.3 0.0
endloop
endfacet
facet normal -1.0 0.0 0.0
outer loop
vertex 29.5 5.3 0.0
vertex 29.5 10.3 1.0
vertex 29.5 10.3 0.0
endloop
endfacet
facet normal -0.0 1.0 0.0
outer loop
vertex 29.5 10.3 1.0
vertex 39.5 10.3 1.0
vertex 29.5 10.3 0.0
endloop
endfacet
facet normal -0.0 1.0 0.0
outer loop
vertex 29.5 10.3 0.0
vertex 39.5 10.3 1.0
vertex 39.5 10.3 0.0
endloop
endfacet
facet normal 1.0 0.0 0.0
outer loop
vertex 39.5 10.3 1.0
vertex 39.5 0.5 1.0
vertex 39.5 10.3 0.0
endloop
endfacet
facet normal 1.0 0.0 0.0
outer loop
vertex 39.5 10.3 0.0
vertex 39.5 0.5 1.0
vertex 39.5 0.5 0.0
endloop
endfacet
facet normal -0.0 -1.0 -0.0
outer loop
vertex 39.5 0.5 1.0
vertex 29.5 0.5 1.0
vertex 39.5 0.5 0.0
endloop
endfacet
facet normal -0.0 -1.0 -0.0
outer loop
vertex 39.5 0.5 0.0
vertex 29.5 0.5 1.0
vertex 29.5 0.5 0.0
endloop
endfacet
facet normal -0.0 -1.0 -0.0
outer loop
vertex 29.5 0.5 1.0
vertex 0.0 0.5 1.0
vertex 29.5 0.5 0.0
endloop
endfacet
facet normal -0.0 -1.0 -0.0
outer loop
vertex 29.5 0.5 0.0
vertex 0.0 0.5 1.0
vertex 0.0 0.5 0.0
endloop
endfacet
facet normal -0.702953436937675 0.7112358719141704 0.0
outer loop
vertex 0.0 0.5 1.0
vertex 3.6713768322776756 4.128623167722324 1.0
vertex 0.0 0.5 0.0
endloop
endfacet
facet normal -0.702953436937675 0.7112358719141704 0.0
outer loop
vertex 0.0 0.5 0.0
vertex 3.6713768322776756 4.128623167722324 1.0
vertex 3.6713768322776756 4.128623167722324 0.0
endloop
endfacet
facet normal 0.7071067811865476 0.7071067811865476 0.0
outer loop
vertex 3.6713768322776756 4.128623167722324 1.0
vertex 5.0 2.8 1.0
vertex 3.6713768322776756 4.128623167722324 0.0
endloop
endfacet
facet normal 0.7071067811865476 0.7071067811865476 0.0
outer loop
vertex 3.6713768322776756 4.128623167722324 0.0
vertex 5.0 2.8 1.0
vertex 5.0 2.8 0.0
endloop
endfacet
facet normal -0.7071067811865475 0.7071067811865475 0.0
outer loop
vertex 5.0 2.8 1.0
vertex 7.5 5.3 1.0
vertex 5.0 2.8 0.0
endloop
endfacet
facet normal -0.7071067811865475 0.7071067811865475 0.0
outer loop
vertex 5.0 2.8 0.0
vertex 7.5 5.3 1.0
vertex 7.5 5.3 0.0
endloop
endfacet
facet normal -0.0 1.0 0.0
outer loop
vertex 7.5 5.3 1.0
vertex 8.3 5.3 1.0
vertex 7.5 5.3 0.0
endloop
endfacet
facet normal -0.0 1.0 0.0
outer loop
vertex 7.5 5.3 0.0
vertex 8.3 5.3 1.0
vertex 8.3 5.3 0.0
endloop
endfacet
facet normal 0.7071067811865475 0.7071067811865475 0.0
outer loop
vertex 8.3 5.3 1.0
vertex 8.8 4.8 1.0
vertex 8.3 5.3 0.0
endloop
endfacet
facet normal 0.7071067811865475 0.7071067811865475 0.0
outer loop
vertex 8.3 5.3 0.0
vertex 8.8 4.8 1.0
vertex 8.8 4.8 0.0
endloop
endfacet
facet normal -0.0 1.0 0.0
outer loop
vertex 9.3 5.3 1.0
vertex 11.1 5.3 1.0
vertex 9.3 5.3 0.0
endloop
endfacet
facet normal -0.0 1.0 0.0
outer loop
vertex 9.3 5.3 0.0
vertex 11.1 5.3 1.0
vertex 11.1 5.3 0.0
endloop
endfacet
facet normal -0.7071067811865475 0.7071067811865475 0.0
outer loop
vertex 8.8 4.8 1.0
vertex 9.3 5.3 1.0
vertex 8.8 4.8 0.0
endloop
endfacet
facet normal -0.7071067811865475 0.7071067811865475 0.0
outer loop
vertex 8.8 4.8 0.0
vertex 9.3 5.3 1.0
vertex 9.3 5.3 0.0
endloop
endfacet

endsolid
