solid 
facet normal 0.0 0.0 -1.0
outer loop
vertex 24.0 2.8 0.0
vertex 26.5 5.3 0.0
vertex 29.5 5.3 0.0
endloop
endfacet
facet normal 0.0 0.0 -1.0
outer loop
vertex 20.2 1.7999999999999998 0.0
vertex 22.6 4.2 0.0
vertex 24.0 2.8 0.0
endloop
endfacet
facet normal 0.0 0.0 -1.0
outer loop
vertex 16.4 4.8 0.0
vertex 16.8 5.2 0.0
vertex 20.2 1.7999999999999998 0.0
endloop
endfacet
facet normal 0.0 0.0 -1.0
outer loop
vertex 14.100000000000001 5.3 0.0
vertex 15.899999999999999 5.3 0.0
vertex 16.4 4.8 0.0
endloop
endfacet
facet normal 0.0 0.0 -1.0
outer loop
vertex 10.3 5.3 0.0
vertex 11.100000000000001 5.3 0.0
vertex 12.600000000000001 3.8 0.0
endloop
endfacet
facet normal 0.0 0.0 -1.0
outer loop
vertex 5.5 5.3 0.0
vertex 7.300000000000001 5.3 0.0
vertex 8.8 3.8 0.0
endloop
endfacet
facet normal 0.0 0.0 -1.0
outer loop
vertex 0.0 0.5 0.0
vertex 4.677233498655121 5.122766501344879 0.0
vertex 5.0 4.8 0.0
endloop
endfacet
facet normal -0.0 -0.0 -0.9999999999999999
outer loop
vertex 39.5 10.3 0.0
vertex 39.5 0.5 0.0
vertex 29.5 0.5 0.0
endloop
endfacet
facet normal 0.0 0.0 -1.0
outer loop
vertex 29.5 5.3 0.0
vertex 29.5 10.3 0.0
vertex 39.5 10.3 0.0
endloop
endfacet
facet normal 0.0 0.0 -0.9999999999999999
outer loop
vertex 14.100000000000001 5.3 0.0
vertex 16.4 4.8 0.0
vertex 20.2 1.7999999999999998 0.0
endloop
endfacet
facet normal 0.0 0.0 -1.0
outer loop
vertex 8.8 3.8 0.0
vertex 10.3 5.3 0.0
vertex 12.600000000000001 3.8 0.0
endloop
endfacet
facet normal 0.0 0.0 -1.0
outer loop
vertex 5.0 4.8 0.0
vertex 5.5 5.3 0.0
vertex 8.8 3.8 0.0
endloop
endfacet
facet normal 0.0 -0.0 -1.0
outer loop
vertex 29.5 5.3 0.0
vertex 39.5 10.3 0.0
vertex 29.5 0.5 0.0
endloop
endfacet
facet normal 0.0 0.0 -1.0
outer loop
vertex 12.600000000000001 3.8 0.0
vertex 14.100000000000001 5.3 0.0
vertex 20.2 1.7999999999999998 0.0
endloop
endfacet
facet normal 0.0 0.0 -1.0
outer loop
vertex 0.0 0.5 0.0
vertex 5.0 4.8 0.0
vertex 8.8 3.8 0.0
endloop
endfacet
facet normal 0.0 0.0 -1.0
outer loop
vertex 24.0 2.8 0.0
vertex 29.5 5.3 0.0
vertex 29.5 0.5 0.0
endloop
endfacet
facet normal 0.0 0.0 -0.9999999999999999
outer loop
vertex 8.8 3.8 0.0
vertex 12.600000000000001 3.8 0.0
vertex 20.2 1.7999999999999998 0.0
endloop
endfacet
facet normal 0.0 0.0 -1.0
outer loop
vertex 20.2 1.7999999999999998 0.0
vertex 24.0 2.8 0.0
vertex 29.5 0.5 0.0
endloop
endfacet
facet normal 0.0 0.0 -0.9999999999999999
outer loop
vertex 0.0 0.5 0.0
vertex 8.8 3.8 0.0
vertex 20.2 1.7999999999999998 0.0
endloop
endfacet
facet normal -0.0 -0.0 -1.0
outer loop
vertex 20.2 1.7999999999999998 0.0
vertex 29.5 0.5 0.0
vertex 0.0 0.5 0.0
endloop
endfacet
facet normal 0.0 0.0 1.0
outer loop
vertex 29.5 5.3 1.0
vertex 26.5 5.3 1.0
vertex 24.0 2.8 1.0
endloop
endfacet
facet normal 0.0 0.0 1.0
outer loop
vertex 24.0 2.8 1.0
vertex 22.6 4.2 1.0
vertex 20.2 1.7999999999999998 1.0
endloop
endfacet
facet normal 0.0 0.0 1.0
outer loop
vertex 20.2 1.7999999999999998 1.0
vertex 16.8 5.2 1.0
vertex 16.4 4.8 1.0
endloop
endfacet
facet normal 0.0 0.0 1.0
outer loop
vertex 16.4 4.8 1.0
vertex 15.899999999999999 5.3 1.0
vertex 14.100000000000001 5.3 1.0
endloop
endfacet
facet normal 0.0 0.0 1.0
outer loop
vertex 12.600000000000001 3.8 1.0
vertex 11.100000000000001 5.3 1.0
vertex 10.3 5.3 1.0
endloop
endfacet
facet normal 0.0 0.0 1.0
outer loop
vertex 8.8 3.8 1.0
vertex 7.300000000000001 5.3 1.0
vertex 5.5 5.3 1.0
endloop
endfacet
facet normal 0.0 0.0 1.0
outer loop
vertex 5.0 4.8 1.0
vertex 4.677233498655121 5.122766501344879 1.0
vertex 0.0 0.5 1.0
endloop
endfacet
facet normal 0.0 0.0 0.9999999999999999
outer loop
vertex 29.5 0.5 1.0
vertex 39.5 0.5 1.0
vertex 39.5 10.3 1.0
endloop
endfacet
facet normal 0.0 0.0 1.0
outer loop
vertex 39.5 10.3 1.0
vertex 29.5 10.3 1.0
vertex 29.5 5.3 1.0
endloop
endfacet
facet normal 0.0 0.0 0.9999999999999999
outer loop
vertex 20.2 1.7999999999999998 1.0
vertex 16.4 4.8 1.0
vertex 14.100000000000001 5.3 1.0
endloop
endfacet
facet normal 0.0 0.0 1.0
outer loop
vertex 12.600000000000001 3.8 1.0
vertex 10.3 5.3 1.0
vertex 8.8 3.8 1.0
endloop
endfacet
facet normal 0.0 0.0 1.0
outer loop
vertex 8.8 3.8 1.0
vertex 5.5 5.3 1.0
vertex 5.0 4.8 1.0
endloop
endfacet
facet normal 0.0 -0.0 1.0
outer loop
vertex 29.5 0.5 1.0
vertex 39.5 10.3 1.0
vertex 29.5 5.3 1.0
endloop
endfacet
facet normal 0.0 0.0 1.0
outer loop
vertex 20.2 1.7999999999999998 1.0
vertex 14.100000000000001 5.3 1.0
vertex 12.600000000000001 3.8 1.0
endloop
endfacet
facet normal 0.0 0.0 1.0
outer loop
vertex 8.8 3.8 1.0
vertex 5.0 4.8 1.0
vertex 0.0 0.5 1.0
endloop
endfacet
facet normal 0.0 -0.0 1.0
outer loop
vertex 29.5 0.5 1.0
vertex 29.5 5.3 1.0
vertex 24.0 2.8 1.0
endloop
endfacet
facet normal 0.0 0.0 0.9999999999999999
outer loop
vertex 20.2 1.7999999999999998 1.0
vertex 12.600000000000001 3.8 1.0
vertex 8.8 3.8 1.0
endloop
endfacet
facet normal 0.0 0.0 1.0
outer loop
vertex 29.5 0.5 1.0
vertex 24.0 2.8 1.0
vertex 20.2 1.7999999999999998 1.0
endloop
endfacet
facet normal 0.0 0.0 0.9999999999999999
outer loop
vertex 20.2 1.7999999999999998 1.0
vertex 8.8 3.8 1.0
vertex 0.0 0.5 1.0
endloop
endfacet
facet normal 0.0 -0.0 1.0
outer loop
vertex 0.0 0.5 1.0
vertex 29.5 0.5 1.0
vertex 20.2 1.7999999999999998 1.0
endloop
endfacet
facet normal -1.0 0.0 -0.0
outer loop
vertex 29.5 5.3 1.0
vertex 29.5 10.3 1.0
vertex 29.5 5.3 0.0
endloop
endfacet
facet normal -1.0 0.0 0.0
outer loop
vertex 29.5 5.3 0.0
vertex 29.5 10.3 1.0
vertex 29.5 10.3 0.0
endloop
endfacet
facet normal -0.0 1.0 0.0
outer loop
vertex 29.5 10.3 1.0
vertex 39.5 10.3 1.0
vertex 29.5 10.3 0.0
endloop
endfacet
facet normal -0.0 1.0 0.0
outer loop
vertex 29.5 10.3 0.0
vertex 39.5 10.3 1.0
vertex 39.5 10.3 0.0
endloop
endfacet
facet normal 1.0 0.0 0.0
outer loop
vertex 39.5 10.3 1.0
vertex 39.5 0.5 1.0
vertex 39.5 10.3 0.0
endloop
endfacet
facet normal 1.0 0.0 0.0
outer loop
vertex 39.5 10.3 0.0
vertex 39.5 0.5 1.0
vertex 39.5 0.5 0.0
endloop
endfacet
facet normal -0.0 -1.0 -0.0
outer loop
vertex 39.5 0.5 1.0
vertex 29.5 0.5 1.0
vertex 39.5 0.5 0.0
endloop
endfacet
facet normal -0.0 -1.0 -0.0
outer loop
vertex 39.5 0.5 0.0
vertex 29.5 0.5 1.0
vertex 29.5 0.5 0.0
endloop
endfacet
facet normal -0.0 -1.0 -0.0
outer loop
vertex 29.5 0.5 1.0
vertex 0.0 0.5 1.0
vertex 29.5 0.5 0.0
endloop
endfacet
facet normal -0.0 -1.0 -0.0
outer loop
vertex 29.5 0.5 0.0
vertex 0.0 0.5 1.0
vertex 0.0 0.5 0.0
endloop
endfacet
facet normal -0.702953436937675 0.7112358719141704 0.0
outer loop
vertex 0.0 0.5 1.0
vertex 4.677233498655121 5.122766501344879 1.0
vertex 0.0 0.5 0.0
endloop
endfacet
facet normal -0.702953436937675 0.7112358719141704 0.0
outer loop
vertex 0.0 0.5 0.0
vertex 4.677233498655121 5.122766501344879 1.0
vertex 4.677233498655121 5.122766501344879 0.0
endloop
endfacet
facet normal 0.7071067811865475 0.7071067811865475 0.0
outer loop
vertex 4.677233498655121 5.122766501344879 1.0
vertex 5.0 4.8 1.0
vertex 4.677233498655121 5.122766501344879 0.0
endloop
endfacet
facet normal 0.7071067811865475 0.7071067811865475 0.0
outer loop
vertex 4.677233498655121 5.122766501344879 0.0
vertex 5.0 4.8 1.0
vertex 5.0 4.8 0.0
endloop
endfacet
facet normal -0.7071067811865475 0.7071067811865475 0.0
outer loop
vertex 5.0 4.8 1.0
vertex 5.5 5.3 1.0
vertex 5.0 4.8 0.0
endloop
endfacet
facet normal -0.7071067811865475 0.7071067811865475 0.0
outer loop
vertex 5.0 4.8 0.0
vertex 5.5 5.3 1.0
vertex 5.5 5.3 0.0
endloop
endfacet
facet normal -0.0 1.0 0.0
outer loop
vertex 5.5 5.3 1.0
vertex 7.300000000000001 5.3 1.0
vertex 5.5 5.3 0.0
endloop
endfacet
facet normal -0.0 1.0 0.0
outer loop
vertex 5.5 5.3 0.0
vertex 7.300000000000001 5.3 1.0
vertex 7.300000000000001 5.3 0.0
endloop
endfacet
facet normal 0.7071067811865476 0.7071067811865476 0.0
outer loop
vertex 7.300000000000001 5.3 1.0
vertex 8.8 3.8 1.0
vertex 7.300000000000001 5.3 0.0
endloop
endfacet
facet normal 0.7071067811865476 0.7071067811865476 0.0
outer loop
vertex 7.300000000000001 5.3 0.0
vertex 8.8 3.8 1.0
vertex 8.8 3.8 0.0
endloop
endfacet
facet normal -0.7071067811865476 0.7071067811865476 0.0
outer loop
vertex 8.8 3.8 1.0
vertex 10.3 5.3 1.0
vertex 8.8 3.8 0.0
endloop
endfacet
facet normal -0.7071067811865476 0.7071067811865476 0.0
outer loop
vertex 8.8 3.8 0.0
vertex 10.3 5.3 1.0
vertex 10.3 5.3 0.0
endloop
endfacet
facet normal -0.0 1.0 0.0
outer loop
vertex 10.3 5.3 1.0
vertex 11.100000000000001 5.3 1.0
vertex 10.3 5.3 0.0
endloop
endfacet
facet normal -0.0 1.0 0.0
outer loop
vertex 10.3 5.3 0.0
vertex 11.100000000000001 5.3 1.0
vertex 11.100000000000001 5.3 0.0
endloop
endfacet
facet normal 0.7071067811865476 0.7071067811865476 0.0
outer loop
vertex 11.100000000000001 5.3 1.0
vertex 12.600000000000001 3.8 1.0
vertex 11.100000000000001 5.3 0.0
endloop
endfacet
facet normal 0.7071067811865476 0.7071067811865476 0.0
outer loop
vertex 11.100000000000001 5.3 0.0
vertex 12.600000000000001 3.8 1.0
vertex 12.600000000000001 3.8 0.0
endloop
endfacet
facet normal -0.7071067811865476 0.7071067811865476 0.0
outer loop
vertex 12.600000000000001 3.8 1.0
vertex 14.100000000000001 5.3 1.0
vertex 12.600000000000001 3.8 0.0
endloop
endfacet
facet normal -0.7071067811865476 0.7071067811865476 0.0
outer loop
vertex 12.600000000000001 3.8 0.0
vertex 14.100000000000001 5.3 1.0
vertex 14.100000000000001 5.3 0.0
endloop
endfacet
facet normal -0.0 1.0 0.0
outer loop
vertex 14.100000000000001 5.3 1.0
vertex 15.899999999999999 5.3 1.0
vertex 14.100000000000001 5.3 0.0
endloop
endfacet
facet normal -0.0 1.0 0.0
outer loop
vertex 14.100000000000001 5.3 0.0
vertex 15.899999999999999 5.3 1.0
vertex 15.899999999999999 5.3 0.0
endloop
endfacet
facet normal 0.7071067811865475 0.7071067811865475 0.0
outer loop
vertex 15.899999999999999 5.3 1.0
vertex 16.4 4.8 1.0
vertex 15.899999999999999 5.3 0.0
endloop
endfacet
facet normal 0.7071067811865475 0.7071067811865475 0.0
outer loop
vertex 15.899999999999999 5.3 0.0
vertex 16.4 4.8 1.0
vertex 16.4 4.8 0.0
endloop
endfacet
facet normal -0.7071067811865459 0.7071067811865491 0.0
outer loop
vertex 16.4 4.8 1.0
vertex 16.8 5.2 1.0
vertex 16.4 4.8 0.0
endloop
endfacet
facet normal -0.7071067811865459 0.7071067811865491 0.0
outer loop
vertex 16.4 4.8 0.0
vertex 16.8 5.2 1.0
vertex 16.8 5.2 0.0
endloop
endfacet
facet normal 0.7071067811865477 0.7071067811865472 0.0
outer loop
vertex 16.8 5.2 1.0
vertex 20.2 1.7999999999999998 1.0
vertex 16.8 5.2 0.0
endloop
endfacet
facet normal 0.7071067811865477 0.7071067811865472 0.0
outer loop
vertex 16.8 5.2 0.0
vertex 20.2 1.7999999999999998 1.0
vertex 20.2 1.7999999999999998 0.0
endloop
endfacet
facet normal -0.7071067811865472 0.7071067811865478 0.0
outer loop
vertex 20.2 1.7999999999999998 1.0
vertex 22.6 4.2 1.0
vertex 20.2 1.7999999999999998 0.0
endloop
endfacet
facet normal -0.7071067811865472 0.7071067811865478 0.0
outer loop
vertex 20.2 1.7999999999999998 0.0
vertex 22.6 4.2 1.0
vertex 22.6 4.2 0.0
endloop
endfacet
facet normal 0.707106781186548 0.7071067811865471 0.0
outer loop
vertex 22.6 4.2 1.0
vertex 24.0 2.8 1.0
vertex 22.6 4.2 0.0
endloop
endfacet
facet normal 0.707106781186548 0.7071067811865471 0.0
outer loop
vertex 22.6 4.2 0.0
vertex 24.0 2.8 1.0
vertex 24.0 2.8 0.0
endloop
endfacet
facet normal -0.0 1.0 0.0
outer loop
vertex 26.5 5.3 1.0
vertex 29.5 5.3 1.0
vertex 26.5 5.3 0.0
endloop
endfacet
facet normal -0.0 1.0 0.0
outer loop
vertex 26.5 5.3 0.0
vertex 29.5 5.3 1.0
vertex 29.5 5.3 0.0
endloop
endfacet
facet normal -0.7071067811865475 0.7071067811865475 0.0
outer loop
vertex 24.0 2.8 1.0
vertex 26.5 5.3 1.0
vertex 24.0 2.8 0.0
endloop
endfacet
facet normal -0.7071067811865475 0.7071067811865475 0.0
outer loop
vertex 24.0 2.8 0.0
vertex 26.5 5.3 1.0
vertex 26.5 5.3 0.0
endloop
endfacet

endsolid
