solid 
facet normal 0.0 0.0 -1.0
outer loop
vertex 24.0 2.8 0.0
vertex 26.5 5.3 0.0
vertex 29.5 5.3 0.0
endloop
endfacet
facet normal 0.0 0.0 -1.0
outer loop
vertex 20.2 1.7999999999999998 0.0
vertex 22.6 4.2 0.0
vertex 24.0 2.8 0.0
endloop
endfacet
facet normal 0.0 0.0 -1.0
outer loop
vertex 16.4 2.8 0.0
vertex 17.8 4.2 0.0
vertex 20.2 1.7999999999999998 0.0
endloop
endfacet
facet normal 0.0 0.0 -1.0
outer loop
vertex 13.100000000000001 5.3 0.0
vertex 13.899999999999999 5.3 0.0
vertex 16.4 2.8 0.0
endloop
endfacet
facet normal 0.0 0.0 -1.0
outer loop
vertex 8.8 1.7999999999999998 0.0
vertex 12.200000000000001 5.2 0.0
vertex 12.600000000000001 4.8 0.0
endloop
endfacet
facet normal 0.0 0.0 -1.0
outer loop
vertex 5.0 1.7999999999999998 0.0
vertex 6.9 3.6999999999999997 0.0
vertex 8.8 1.7999999999999998 0.0
endloop
endfacet
facet normal 0.0 0.0 -1.0
outer loop
vertex 0.0 0.5 0.0
vertex 3.168448499088953 3.6315515009110464 0.0
vertex 5.0 1.7999999999999998 0.0
endloop
endfacet
facet normal -0.0 -0.0 -0.9999999999999999
outer loop
vertex 39.5 10.3 0.0
vertex 39.5 0.5 0.0
vertex 29.5 0.5 0.0
endloop
endfacet
facet normal 0.0 0.0 -1.0
outer loop
vertex 29.5 5.3 0.0
vertex 29.5 10.3 0.0
vertex 39.5 10.3 0.0
endloop
endfacet
facet normal 0.0 0.0 -1.0
outer loop
vertex 12.600000000000001 4.8 0.0
vertex 13.100000000000001 5.3 0.0
vertex 16.4 2.8 0.0
endloop
endfacet
facet normal 0.0 0.0 -1.0
outer loop
vertex 0.0 0.5 0.0
vertex 5.0 1.7999999999999998 0.0
vertex 8.8 1.7999999999999998 0.0
endloop
endfacet
facet normal 0.0 -0.0 -1.0
outer loop
vertex 29.5 5.3 0.0
vertex 39.5 10.3 0.0
vertex 29.5 0.5 0.0
endloop
endfacet
facet normal 0.0 0.0 -1.0
outer loop
vertex 8.8 1.7999999999999998 0.0
vertex 12.600000000000001 4.8 0.0
vertex 16.4 2.8 0.0
endloop
endfacet
facet normal 0.0 0.0 -1.0
outer loop
vertex 29.5 0.5 0.0
vertex 0.0 0.5 0.0
vertex 8.8 1.7999999999999998 0.0
endloop
endfacet
facet normal 0.0 0.0 -1.0
outer loop
vertex 24.0 2.8 0.0
vertex 29.5 5.3 0.0
vertex 29.5 0.5 0.0
endloop
endfacet
facet normal 0.0 0.0 -1.0
outer loop
vertex 8.8 1.7999999999999998 0.0
vertex 16.4 2.8 0.0
vertex 20.2 1.7999999999999998 0.0
endloop
endfacet
facet normal 0.0 0.0 -1.0
outer loop
vertex 20.2 1.7999999999999998 0.0
vertex 24.0 2.8 0.0
vertex 29.5 0.5 0.0
endloop
endfacet
facet normal 0.0 0.0 -1.0
outer loop
vertex 29.5 0.5 0.0
vertex 8.8 1.7999999999999998 0.0
vertex 20.2 1.7999999999999998 0.0
endloop
endfacet
facet normal 0.0 0.0 1.0
outer loop
vertex 29.5 5.3 1.0
vertex 26.5 5.3 1.0
vertex 24.0 2.8 1.0
endloop
endfacet
facet normal 0.0 0.0 1.0
outer loop
vertex 24.0 2.8 1.0
vertex 22.6 4.2 1.0
vertex 20.2 1.7999999999999998 1.0
endloop
endfacet
facet normal 0.0 0.0 1.0
outer loop
vertex 20.2 1.7999999999999998 1.0
vertex 17.8 4.2 1.0
vertex 16.4 2.8 1.0
endloop
endfacet
facet normal 0.0 0.0 1.0
outer loop
vertex 16.4 2.8 1.0
vertex 13.899999999999999 5.3 1.0
vertex 13.100000000000001 5.3 1.0
endloop
endfacet
facet normal 0.0 0.0 1.0
outer loop
vertex 12.600000000000001 4.8 1.0
vertex 12.200000000000001 5.2 1.0
vertex 8.8 1.7999999999999998 1.0
endloop
endfacet
facet normal 0.0 0.0 1.0
outer loop
vertex 8.8 1.7999999999999998 1.0
vertex 6.9 3.6999999999999997 1.0
vertex 5.0 1.7999999999999998 1.0
endloop
endfacet
facet normal 0.0 0.0 1.0
outer loop
vertex 5.0 1.7999999999999998 1.0
vertex 3.168448499088953 3.6315515009110464 1.0
vertex 0.0 0.5 1.0
endloop
endfacet
facet normal 0.0 0.0 0.9999999999999999
outer loop
vertex 29.5 0.5 1.0
vertex 39.5 0.5 1.0
vertex 39.5 10.3 1.0
endloop
endfacet
facet normal 0.0 0.0 1.0
outer loop
vertex 39.5 10.3 1.0
vertex 29.5 10.3 1.0
vertex 29.5 5.3 1.0
endloop
endfacet
facet normal 0.0 0.0 1.0
outer loop
vertex 16.4 2.8 1.0
vertex 13.100000000000001 5.3 1.0
vertex 12.600000000000001 4.8 1.0
endloop
endfacet
facet normal 0.0 0.0 1.0
outer loop
vertex 8.8 1.7999999999999998 1.0
vertex 5.0 1.7999999999999998 1.0
vertex 0.0 0.5 1.0
endloop
endfacet
facet normal 0.0 -0.0 1.0
outer loop
vertex 29.5 0.5 1.0
vertex 39.5 10.3 1.0
vertex 29.5 5.3 1.0
endloop
endfacet
facet normal 0.0 0.0 1.0
outer loop
vertex 16.4 2.8 1.0
vertex 12.600000000000001 4.8 1.0
vertex 8.8 1.7999999999999998 1.0
endloop
endfacet
facet normal -0.0 0.0 1.0
outer loop
vertex 8.8 1.7999999999999998 1.0
vertex 0.0 0.5 1.0
vertex 29.5 0.5 1.0
endloop
endfacet
facet normal 0.0 -0.0 1.0
outer loop
vertex 29.5 0.5 1.0
vertex 29.5 5.3 1.0
vertex 24.0 2.8 1.0
endloop
endfacet
facet normal 0.0 0.0 1.0
outer loop
vertex 20.2 1.7999999999999998 1.0
vertex 16.4 2.8 1.0
vertex 8.8 1.7999999999999998 1.0
endloop
endfacet
facet normal 0.0 0.0 1.0
outer loop
vertex 29.5 0.5 1.0
vertex 24.0 2.8 1.0
vertex 20.2 1.7999999999999998 1.0
endloop
endfacet
facet normal 0.0 0.0 1.0
outer loop
vertex 20.2 1.7999999999999998 1.0
vertex 8.8 1.7999999999999998 1.0
vertex 29.5 0.5 1.0
endloop
endfacet
facet normal -1.0 0.0 -0.0
outer loop
vertex 29.5 5.3 1.0
vertex 29.5 10.3 1.0
vertex 29.5 5.3 0.0
endloop
endfacet
facet normal -1.0 0.0 0.0
outer loop
vertex 29.5 5.3 0.0
vertex 29.5 10.3 1.0
vertex 29.5 10.3 0.0
endloop
endfacet
facet normal -0.0 1.0 0.0
outer loop
vertex 29.5 10.3 1.0
vertex 39.5 10.3 1.0
vertex 29.5 10.3 0.0
endloop
endfacet
facet normal -0.0 1.0 0.0
outer loop
vertex 29.5 10.3 0.0
vertex 39.5 10.3 1.0
vertex 39.5 10.3 0.0
endloop
endfacet
facet normal 1.0 0.0 0.0
outer loop
vertex 39.5 10.3 1.0
vertex 39.5 0.5 1.0
vertex 39.5 10.3 0.0
endloop
endfacet
facet normal 1.0 0.0 0.0
outer loop
vertex 39.5 10.3 0.0
vertex 39.5 0.5 1.0
vertex 39.5 0.5 0.0
endloop
endfacet
facet normal -0.0 -1.0 -0.0
outer loop
vertex 39.5 0.5 1.0
vertex 29.5 0.5 1.0
vertex 39.5 0.5 0.0
endloop
endfacet
facet normal -0.0 -1.0 -0.0
outer loop
vertex 39.5 0.5 0.0
vertex 29.5 0.5 1.0
vertex 29.5 0.5 0.0
endloop
endfacet
facet normal -0.0 -1.0 -0.0
outer loop
vertex 29.5 0.5 1.0
vertex 0.0 0.5 1.0
vertex 29.5 0.5 0.0
endloop
endfacet
facet normal -0.0 -1.0 -0.0
outer loop
vertex 29.5 0.5 0.0
vertex 0.0 0.5 1.0
vertex 0.0 0.5 0.0
endloop
endfacet
facet normal -0.7029534369376749 0.7112358719141704 0.0
outer loop
vertex 0.0 0.5 1.0
vertex 3.168448499088953 3.6315515009110464 1.0
vertex 0.0 0.5 0.0
endloop
endfacet
facet normal -0.7029534369376749 0.7112358719141704 0.0
outer loop
vertex 0.0 0.5 0.0
vertex 3.168448499088953 3.6315515009110464 1.0
vertex 3.168448499088953 3.6315515009110464 0.0
endloop
endfacet
facet normal 0.7071067811865475 0.7071067811865476 0.0
outer loop
vertex 3.168448499088953 3.6315515009110464 1.0
vertex 5.0 1.7999999999999998 1.0
vertex 3.168448499088953 3.6315515009110464 0.0
endloop
endfacet
facet normal 0.7071067811865475 0.7071067811865476 0.0
outer loop
vertex 3.168448499088953 3.6315515009110464 0.0
vertex 5.0 1.7999999999999998 1.0
vertex 5.0 1.7999999999999998 0.0
endloop
endfacet
facet normal -0.7071067811865476 0.7071067811865477 0.0
outer loop
vertex 5.0 1.7999999999999998 1.0
vertex 6.9 3.6999999999999997 1.0
vertex 5.0 1.7999999999999998 0.0
endloop
endfacet
facet normal -0.7071067811865476 0.7071067811865477 0.0
outer loop
vertex 5.0 1.7999999999999998 0.0
vertex 6.9 3.6999999999999997 1.0
vertex 6.9 3.6999999999999997 0.0
endloop
endfacet
facet normal 0.7071067811865476 0.7071067811865477 0.0
outer loop
vertex 6.9 3.6999999999999997 1.0
vertex 8.8 1.7999999999999998 1.0
vertex 6.9 3.6999999999999997 0.0
endloop
endfacet
facet normal 0.7071067811865476 0.7071067811865477 0.0
outer loop
vertex 6.9 3.6999999999999997 0.0
vertex 8.8 1.7999999999999998 1.0
vertex 8.8 1.7999999999999998 0.0
endloop
endfacet
facet normal -0.7071067811865476 0.7071067811865476 0.0
outer loop
vertex 8.8 1.7999999999999998 1.0
vertex 12.200000000000001 5.2 1.0
vertex 8.8 1.7999999999999998 0.0
endloop
endfacet
facet normal -0.7071067811865476 0.7071067811865476 0.0
outer loop
vertex 8.8 1.7999999999999998 0.0
vertex 12.200000000000001 5.2 1.0
vertex 12.200000000000001 5.2 0.0
endloop
endfacet
facet normal 0.7071067811865475 0.7071067811865475 0.0
outer loop
vertex 12.200000000000001 5.2 1.0
vertex 12.600000000000001 4.8 1.0
vertex 12.200000000000001 5.2 0.0
endloop
endfacet
facet normal 0.7071067811865475 0.7071067811865475 0.0
outer loop
vertex 12.200000000000001 5.2 0.0
vertex 12.600000000000001 4.8 1.0
vertex 12.600000000000001 4.8 0.0
endloop
endfacet
facet normal -0.7071067811865475 0.7071067811865475 0.0
outer loop
vertex 12.600000000000001 4.8 1.0
vertex 13.100000000000001 5.3 1.0
vertex 12.600000000000001 4.8 0.0
endloop
endfacet
facet normal -0.7071067811865475 0.7071067811865475 0.0
outer loop
vertex 12.600000000000001 4.8 0.0
vertex 13.100000000000001 5.3 1.0
vertex 13.100000000000001 5.3 0.0
endloop
endfacet
facet normal -0.0 1.0 0.0
outer loop
vertex 13.100000000000001 5.3 1.0
vertex 13.899999999999999 5.3 1.0
vertex 13.100000000000001 5.3 0.0
endloop
endfacet
facet normal -0.0 1.0 0.0
outer loop
vertex 13.100000000000001 5.3 0.0
vertex 13.899999999999999 5.3 1.0
vertex 13.899999999999999 5.3 0.0
endloop
endfacet
facet normal 0.7071067811865475 0.7071067811865475 0.0
outer loop
vertex 13.899999999999999 5.3 1.0
vertex 16.4 2.8 1.0
vertex 13.899999999999999 5.3 0.0
endloop
endfacet
facet normal 0.7071067811865475 0.7071067811865475 0.0
outer loop
vertex 13.899999999999999 5.3 0.0
vertex 16.4 2.8 1.0
vertex 16.4 2.8 0.0
endloop
endfacet
facet normal -0.707106781186547 0.7071067811865479 0.0
outer loop
vertex 16.4 2.8 1.0
vertex 17.8 4.2 1.0
vertex 16.4 2.8 0.0
endloop
endfacet
facet normal -0.707106781186547 0.7071067811865479 0.0
outer loop
vertex 16.4 2.8 0.0
vertex 17.8 4.2 1.0
vertex 17.8 4.2 0.0
endloop
endfacet
facet normal 0.7071067811865478 0.7071067811865472 0.0
outer loop
vertex 17.8 4.2 1.0
vertex 20.2 1.7999999999999998 1.0
vertex 17.8 4.2 0.0
endloop
endfacet
facet normal 0.7071067811865478 0.7071067811865472 0.0
outer loop
vertex 17.8 4.2 0.0
vertex 20.2 1.7999999999999998 1.0
vertex 20.2 1.7999999999999998 0.0
endloop
endfacet
facet normal -0.7071067811865472 0.7071067811865478 0.0
outer loop
vertex 20.2 1.7999999999999998 1.0
vertex 22.6 4.2 1.0
vertex 20.2 1.7999999999999998 0.0
endloop
endfacet
facet normal -0.7071067811865472 0.7071067811865478 0.0
outer loop
vertex 20.2 1.7999999999999998 0.0
vertex 22.6 4.2 1.0
vertex 22.6 4.2 0.0
endloop
endfacet
facet normal 0.707106781186548 0.7071067811865471 0.0
outer loop
vertex 22.6 4.2 1.0
vertex 24.0 2.8 1.0
vertex 22.6 4.2 0.0
endloop
endfacet
facet normal 0.707106781186548 0.7071067811865471 0.0
outer loop
vertex 22.6 4.2 0.0
vertex 24.0 2.8 1.0
vertex 24.0 2.8 0.0
endloop
endfacet
facet normal -0.0 1.0 0.0
outer loop
vertex 26.5 5.3 1.0
vertex 29.5 5.3 1.0
vertex 26.5 5.3 0.0
endloop
endfacet
facet normal -0.0 1.0 0.0
outer loop
vertex 26.5 5.3 0.0
vertex 29.5 5.3 1.0
vertex 29.5 5.3 0.0
endloop
endfacet
facet normal -0.7071067811865475 0.7071067811865475 0.0
outer loop
vertex 24.0 2.8 1.0
vertex 26.5 5.3 1.0
vertex 24.0 2.8 0.0
endloop
endfacet
facet normal -0.7071067811865475 0.7071067811865475 0.0
outer loop
vertex 24.0 2.8 0.0
vertex 26.5 5.3 1.0
vertex 26.5 5.3 0.0
endloop
endfacet

endsolid
