solid OpenSCAD_Model
  facet normal -0.8910065241883681 -0.453990499739546 0
    outer loop
      vertex -4.953169548885461 -0.9270509831248421 -15
      vertex -4.527050983124843 -1.7633557568774194 -15
      vertex -4.953169548885461 -0.9270509831248421 0.00001
    endloop
  endfacet
  facet normal -0.7071067811865474 -0.7071067811865477 0
    outer loop
      vertex -4.527050983124843 -1.7633557568774194 -15
      vertex -3.8633557568774197 -2.4270509831248424 -15
      vertex -4.527050983124843 -1.7633557568774194 0.00001
    endloop
  endfacet
  facet normal -0.9876883405951377 -0.15643446504023067 0
    outer loop
      vertex -4.953169548885461 -0.9270509831248421 -15
      vertex -4.953169548885461 -0.9270509831248421 0.00001
      vertex -5.1 0 -15
    endloop
  endfacet
  facet normal -0.45399049973954625 -0.8910065241883682 0
    outer loop
      vertex -3.8633557568774197 -2.4270509831248424 -15
      vertex -3.027050983124842 -2.8531695488854605 -15
      vertex -3.8633557568774197 -2.4270509831248424 0.00001
    endloop
  endfacet
  facet normal 0 0 -1
    outer loop
      vertex -4.953169548885461 -0.9270509831248421 -15
      vertex -5.1 0 -15
      vertex 3.8633557568774197 -2.4270509831248424 -15
    endloop
  endfacet
  facet normal 0 0 -1
    outer loop
      vertex -4.527050983124843 -1.7633557568774194 -15
      vertex 3.8633557568774197 -2.4270509831248424 -15
      vertex -3.8633557568774197 -2.4270509831248424 -15
    endloop
  endfacet
  facet normal 0 0 -1
    outer loop
      vertex -4.953169548885461 -0.9270509831248421 -15
      vertex 3.8633557568774197 -2.4270509831248424 -15
      vertex -4.527050983124843 -1.7633557568774194 -15
    endloop
  endfacet
  facet normal 0 0 -1
    outer loop
      vertex -3.8633557568774197 -2.4270509831248424 -15
      vertex 3.8633557568774197 -2.4270509831248424 -15
      vertex -3.027050983124842 -2.8531695488854605 -15
    endloop
  endfacet
  facet normal 0 0 -1
    outer loop
      vertex -3.027050983124842 -2.8531695488854605 -15
      vertex 3.8633557568774197 -2.4270509831248424 -15
      vertex -2.1 -3 -15
    endloop
  endfacet
  facet normal -0.1564344650402312 -0.9876883405951377 0
    outer loop
      vertex -3.027050983124842 -2.8531695488854605 -15
      vertex -2.1 -3 -15
      vertex -2.1 -3 0.00001
    endloop
  endfacet
  facet normal 0 -1 0
    outer loop
      vertex -2.1 -3 -15
      vertex 2.1 -3 -15
      vertex -2.1 -3 0.00001
    endloop
  endfacet
  facet normal 0 0 -1
    outer loop
      vertex -5.1 0 -15
      vertex -5.1 11.5 -15
      vertex 3.8633557568774197 -2.4270509831248424 -15
    endloop
  endfacet
  facet normal -0.8910065241883681 -0.453990499739546 0
    outer loop
      vertex -4.527050983124843 -1.7633557568774194 -15
      vertex -4.527050983124843 -1.7633557568774194 0.00001
      vertex -4.953169548885461 -0.9270509831248421 0.00001
    endloop
  endfacet
  facet normal -0.7071067811865474 -0.7071067811865477 0
    outer loop
      vertex -3.8633557568774197 -2.4270509831248424 -15
      vertex -3.8633557568774197 -2.4270509831248424 0.00001
      vertex -4.527050983124843 -1.7633557568774194 0.00001
    endloop
  endfacet
  facet normal -0.9876883405951377 -0.15643446504023067 0
    outer loop
      vertex -5.1 0 -15
      vertex -4.953169548885461 -0.9270509831248421 0.00001
      vertex -5.1 0 0.00001
    endloop
  endfacet
  facet normal -0.45399049973954625 -0.8910065241883682 0
    outer loop
      vertex -3.027050983124842 -2.8531695488854605 -15
      vertex -3.027050983124842 -2.8531695488854605 0.00001
      vertex -3.8633557568774197 -2.4270509831248424 0.00001
    endloop
  endfacet
  facet normal -0.1564344650402312 -0.9876883405951377 0
    outer loop
      vertex -3.027050983124842 -2.8531695488854605 -15
      vertex -2.1 -3 0.00001
      vertex -3.027050983124842 -2.8531695488854605 0.00001
    endloop
  endfacet
  facet normal 0 0 1
    outer loop
      vertex -5.1 0 0.00001
      vertex -1 0.5 0.00001
      vertex -2.1 0.5 0.00001
    endloop
  endfacet
  facet normal -1 0 0
    outer loop
      vertex -5.1 0 -15
      vertex -5.1 0 0.00001
      vertex -5.1 11.5 0.00001
    endloop
  endfacet
  facet normal 0 0 1
    outer loop
      vertex -5.1 0 0.00001
      vertex -2.1 0.5 0.00001
      vertex -2.1 11.5 0.00001
    endloop
  endfacet
  facet normal 0 0 1
    outer loop
      vertex -4.953169548885461 -0.9270509831248421 0.00001
      vertex -4.527050983124843 -1.7633557568774194 0.00001
      vertex 4.953169548885461 -0.9270509831248421 0.00001
    endloop
  endfacet
  facet normal 0 0 1
    outer loop
      vertex -5.1 0 0.00001
      vertex -1 0 0.00001
      vertex -1 0.5 0.00001
    endloop
  endfacet
  facet normal 0 0 1
    outer loop
      vertex -4.953169548885461 -0.9270509831248421 0.00001
      vertex 4.953169548885461 -0.9270509831248421 0.00001
      vertex -5.1 0 0.00001
    endloop
  endfacet
  facet normal 0 0 1
    outer loop
      vertex -3.8633557568774197 -2.4270509831248424 0.00001
      vertex -3.027050983124842 -2.8531695488854605 0.00001
      vertex 4.953169548885461 -0.9270509831248421 0.00001
    endloop
  endfacet
  facet normal 0 0 1
    outer loop
      vertex -4.527050983124843 -1.7633557568774194 0.00001
      vertex -3.8633557568774197 -2.4270509831248424 0.00001
      vertex 4.953169548885461 -0.9270509831248421 0.00001
    endloop
  endfacet
  facet normal 0 0 1
    outer loop
      vertex -3.027050983124842 -2.8531695488854605 0.00001
      vertex -2.1 -3 0.00001
      vertex 4.953169548885461 -0.9270509831248421 0.00001
    endloop
  endfacet
  facet normal 0 0 1
    outer loop
      vertex -5.1 0 0.00001
      vertex 4.953169548885461 -0.9270509831248421 0.00001
      vertex -1 0 0.00001
    endloop
  endfacet
  facet normal 0 0 1
    outer loop
      vertex -1 11.5 0.00001
      vertex -1 1.1 0.00001
      vertex 1 1.1 0.00001
    endloop
  endfacet
  facet normal -1 0 0
    outer loop
      vertex -5.1 0 -15
      vertex -5.1 11.5 0.00001
      vertex -5.1 11.5 -15
    endloop
  endfacet
  facet normal -0.9876883405951378 0.1564344650402308 0
    outer loop
      vertex -5.1 11.5 -15
      vertex -5.1 11.5 0.00001
      vertex -4.953169548885461 12.427050983124841 -15
    endloop
  endfacet
  facet normal -0.8910065241883686 0.4539904997395455 0
    outer loop
      vertex -4.953169548885461 12.427050983124841 -15
      vertex -4.527050983124843 13.26335575687742 0.00001
      vertex -4.527050983124843 13.26335575687742 -15
    endloop
  endfacet
  facet normal -0.7071067811865476 0.7071067811865476 0
    outer loop
      vertex -4.527050983124843 13.26335575687742 -15
      vertex -3.8633557568774197 13.927050983124843 0.00001
      vertex -3.8633557568774197 13.927050983124843 -15
    endloop
  endfacet
  facet normal -0.45399049973954586 0.8910065241883683 0
    outer loop
      vertex -3.8633557568774197 13.927050983124843 -15
      vertex -3.8633557568774197 13.927050983124843 0.00001
      vertex -3.027050983124842 14.353169548885461 -15
    endloop
  endfacet
  facet normal 0 0 -1
    outer loop
      vertex -5.1 11.5 -15
      vertex -4.953169548885461 12.427050983124841 -15
      vertex 3.8633557568774197 -2.4270509831248424 -15
    endloop
  endfacet
  facet normal 0 0 -1
    outer loop
      vertex -4.953169548885461 12.427050983124841 -15
      vertex -4.527050983124843 13.26335575687742 -15
      vertex 3.8633557568774197 -2.4270509831248424 -15
    endloop
  endfacet
  facet normal 0 0 -1
    outer loop
      vertex -4.527050983124843 13.26335575687742 -15
      vertex -3.8633557568774197 13.927050983124843 -15
      vertex 3.8633557568774197 -2.4270509831248424 -15
    endloop
  endfacet
  facet normal 0 0 -1
    outer loop
      vertex -3.8633557568774197 13.927050983124843 -15
      vertex -3.027050983124842 14.353169548885461 -15
      vertex 3.8633557568774197 -2.4270509831248424 -15
    endloop
  endfacet
  facet normal 0 0 -1
    outer loop
      vertex -3.027050983124842 14.353169548885461 -15
      vertex -2.1 14.5 -15
      vertex 3.8633557568774197 -2.4270509831248424 -15
    endloop
  endfacet
  facet normal -0.15643446504023073 0.9876883405951378 0
    outer loop
      vertex -3.027050983124842 14.353169548885461 -15
      vertex -2.1 14.5 0.00001
      vertex -2.1 14.5 -15
    endloop
  endfacet
  facet normal 0 0 1
    outer loop
      vertex -5.1 0 0.00001
      vertex -2.1 11.5 0.00001
      vertex -5.1 11.5 0.00001
    endloop
  endfacet
  facet normal -0.9876883405951378 0.1564344650402308 0
    outer loop
      vertex -4.953169548885461 12.427050983124841 -15
      vertex -5.1 11.5 0.00001
      vertex -4.953169548885461 12.427050983124841 0.00001
    endloop
  endfacet
  facet normal -0.8910065241883686 0.4539904997395455 0
    outer loop
      vertex -4.953169548885461 12.427050983124841 -15
      vertex -4.953169548885461 12.427050983124841 0.00001
      vertex -4.527050983124843 13.26335575687742 0.00001
    endloop
  endfacet
  facet normal -0.7071067811865476 0.7071067811865476 0
    outer loop
      vertex -4.527050983124843 13.26335575687742 -15
      vertex -4.527050983124843 13.26335575687742 0.00001
      vertex -3.8633557568774197 13.927050983124843 0.00001
    endloop
  endfacet
  facet normal -0.45399049973954586 0.8910065241883683 0
    outer loop
      vertex -3.027050983124842 14.353169548885461 -15
      vertex -3.8633557568774197 13.927050983124843 0.00001
      vertex -3.027050983124842 14.353169548885461 0.00001
    endloop
  endfacet
  facet normal -0.15643446504023073 0.9876883405951378 0
    outer loop
      vertex -3.027050983124842 14.353169548885461 -15
      vertex -3.027050983124842 14.353169548885461 0.00001
      vertex -2.1 14.5 0.00001
    endloop
  endfacet
  facet normal 0 0 1
    outer loop
      vertex -5.1 11.5 0.00001
      vertex -2.1 11.5 0.00001
      vertex -4.953169548885461 12.427050983124841 0.00001
    endloop
  endfacet
  facet normal 0 0 1
    outer loop
      vertex -4.953169548885461 12.427050983124841 0.00001
      vertex -2.1 11.5 0.00001
      vertex -4.527050983124843 13.26335575687742 0.00001
    endloop
  endfacet
  facet normal 0 0 1
    outer loop
      vertex -4.527050983124843 13.26335575687742 0.00001
      vertex -2.1 11.5 0.00001
      vertex -3.8633557568774197 13.927050983124843 0.00001
    endloop
  endfacet
  facet normal 0 0 1
    outer loop
      vertex -3.8633557568774197 13.927050983124843 0.00001
      vertex -2.1 11.5 0.00001
      vertex -3.027050983124842 14.353169548885461 0.00001
    endloop
  endfacet
  facet normal 0 1 0
    outer loop
      vertex -2.1 14.5 -15
      vertex -2.1 14.5 0.00001
      vertex 2.1 14.5 0.00001
    endloop
  endfacet
  facet normal 0 0 1
    outer loop
      vertex -3.027050983124842 14.353169548885461 0.00001
      vertex -2.1 11.5 0.00001
      vertex -1 11.5 0.00001
    endloop
  endfacet
  facet normal 0 0 1
    outer loop
      vertex -3.027050983124842 14.353169548885461 0.00001
      vertex -1 11.5 0.00001
      vertex -2.1 14.5 0.00001
    endloop
  endfacet
  facet normal 0 0 1
    outer loop
      vertex -2.1 14.5 0.00001
      vertex -1 11.5 0.00001
      vertex 1 11.5 0.00001
    endloop
  endfacet
  facet normal 0 0 -1
    outer loop
      vertex -2.1 -3 -15
      vertex 3.8633557568774197 -2.4270509831248424 -15
      vertex 2.1 -3 -15
    endloop
  endfacet
  facet normal 0.1564344650402312 -0.9876883405951377 0
    outer loop
      vertex 2.1 -3 -15
      vertex 3.027050983124842 -2.8531695488854605 -15
      vertex 2.1 -3 0.00001
    endloop
  endfacet
  facet normal 0 0 -1
    outer loop
      vertex 2.1 -3 -15
      vertex 3.8633557568774197 -2.4270509831248424 -15
      vertex 3.027050983124842 -2.8531695488854605 -15
    endloop
  endfacet
  facet normal 0 0 -1
    outer loop
      vertex 3.8633557568774197 -2.4270509831248424 -15
      vertex 4.953169548885461 -0.9270509831248421 -15
      vertex 4.527050983124843 -1.7633557568774194 -15
    endloop
  endfacet
  facet normal 0 0 -1
    outer loop
      vertex 3.8633557568774197 -2.4270509831248424 -15
      vertex 5.1 0 -15
      vertex 4.953169548885461 -0.9270509831248421 -15
    endloop
  endfacet
  facet normal 0.45399049973954625 -0.8910065241883682 0
    outer loop
      vertex 3.027050983124842 -2.8531695488854605 -15
      vertex 3.8633557568774197 -2.4270509831248424 -15
      vertex 3.027050983124842 -2.8531695488854605 0.00001
    endloop
  endfacet
  facet normal 0.7071067811865474 -0.7071067811865477 0
    outer loop
      vertex 3.8633557568774197 -2.4270509831248424 -15
      vertex 4.527050983124843 -1.7633557568774194 -15
      vertex 4.527050983124843 -1.7633557568774194 0.00001
    endloop
  endfacet
  facet normal 0.8910065241883681 -0.453990499739546 0
    outer loop
      vertex 4.527050983124843 -1.7633557568774194 -15
      vertex 4.953169548885461 -0.9270509831248421 -15
      vertex 4.953169548885461 -0.9270509831248421 0.00001
    endloop
  endfacet
  facet normal 0.9876883405951377 -0.15643446504023067 0
    outer loop
      vertex 4.953169548885461 -0.9270509831248421 -15
      vertex 5.1 0 -15
      vertex 4.953169548885461 -0.9270509831248421 0.00001
    endloop
  endfacet
  facet normal 0 0 -1
    outer loop
      vertex 3.8633557568774197 -2.4270509831248424 -15
      vertex 5.1 11.5 -15
      vertex 5.1 0 -15
    endloop
  endfacet
  facet normal 1 0 0
    outer loop
      vertex 5.1 0 -15
      vertex 5.1 11.5 -15
      vertex 5.1 0 0.00001
    endloop
  endfacet
  facet normal 0 -1 0
    outer loop
      vertex -2.1 -3 0.00001
      vertex 2.1 -3 -15
      vertex 2.1 -3 0.00001
    endloop
  endfacet
  facet normal 0 0 1
    outer loop
      vertex -2.1 -3 0.00001
      vertex 2.1 -3 0.00001
      vertex 4.953169548885461 -0.9270509831248421 0.00001
    endloop
  endfacet
  facet normal 0 0 1
    outer loop
      vertex 4.953169548885461 -0.9270509831248421 0.00001
      vertex 1 0 0.00001
      vertex -1 0 0.00001
    endloop
  endfacet
  facet normal 0 0 1
    outer loop
      vertex 4.953169548885461 -0.9270509831248421 0.00001
      vertex 1 0.5 0.00001
      vertex 1 0 0.00001
    endloop
  endfacet
  facet normal 0.1564344650402312 -0.9876883405951377 0
    outer loop
      vertex 3.027050983124842 -2.8531695488854605 -15
      vertex 3.027050983124842 -2.8531695488854605 0.00001
      vertex 2.1 -3 0.00001
    endloop
  endfacet
  facet normal 0.45399049973954625 -0.8910065241883682 0
    outer loop
      vertex 3.8633557568774197 -2.4270509831248424 -15
      vertex 3.8633557568774197 -2.4270509831248424 0.00001
      vertex 3.027050983124842 -2.8531695488854605 0.00001
    endloop
  endfacet
  facet normal 0.7071067811865474 -0.7071067811865477 0
    outer loop
      vertex 3.8633557568774197 -2.4270509831248424 -15
      vertex 4.527050983124843 -1.7633557568774194 0.00001
      vertex 3.8633557568774197 -2.4270509831248424 0.00001
    endloop
  endfacet
  facet normal 0.8910065241883681 -0.453990499739546 0
    outer loop
      vertex 4.527050983124843 -1.7633557568774194 -15
      vertex 4.953169548885461 -0.9270509831248421 0.00001
      vertex 4.527050983124843 -1.7633557568774194 0.00001
    endloop
  endfacet
  facet normal 0.9876883405951377 -0.15643446504023067 0
    outer loop
      vertex 5.1 0 -15
      vertex 5.1 0 0.00001
      vertex 4.953169548885461 -0.9270509831248421 0.00001
    endloop
  endfacet
  facet normal 0 0 1
    outer loop
      vertex 2.1 -3 0.00001
      vertex 3.027050983124842 -2.8531695488854605 0.00001
      vertex 4.953169548885461 -0.9270509831248421 0.00001
    endloop
  endfacet
  facet normal 0 0 1
    outer loop
      vertex 2.1 0.5 0.00001
      vertex 1 0.5 0.00001
      vertex 4.953169548885461 -0.9270509831248421 0.00001
    endloop
  endfacet
  facet normal 0 0 1
    outer loop
      vertex 3.027050983124842 -2.8531695488854605 0.00001
      vertex 3.8633557568774197 -2.4270509831248424 0.00001
      vertex 4.953169548885461 -0.9270509831248421 0.00001
    endloop
  endfacet
  facet normal 0 0 1
    outer loop
      vertex 3.8633557568774197 -2.4270509831248424 0.00001
      vertex 4.527050983124843 -1.7633557568774194 0.00001
      vertex 4.953169548885461 -0.9270509831248421 0.00001
    endloop
  endfacet
  facet normal 0 0 1
    outer loop
      vertex 2.1 0.5 0.00001
      vertex 4.953169548885461 -0.9270509831248421 0.00001
      vertex 2.1 11.5 0.00001
    endloop
  endfacet
  facet normal 0 0 1
    outer loop
      vertex 4.953169548885461 -0.9270509831248421 0.00001
      vertex 5.1 0 0.00001
      vertex 5.1 11.5 0.00001
    endloop
  endfacet
  facet normal 0 0 -1
    outer loop
      vertex -2.1 14.5 -15
      vertex 2.1 14.5 -15
      vertex 3.8633557568774197 -2.4270509831248424 -15
    endloop
  endfacet
  facet normal 0 1 0
    outer loop
      vertex -2.1 14.5 -15
      vertex 2.1 14.5 0.00001
      vertex 2.1 14.5 -15
    endloop
  endfacet
  facet normal 0.15643446504023073 0.9876883405951378 0
    outer loop
      vertex 2.1 14.5 -15
      vertex 2.1 14.5 0.00001
      vertex 3.027050983124842 14.353169548885461 -15
    endloop
  endfacet
  facet normal 0 0 -1
    outer loop
      vertex 3.8633557568774197 -2.4270509831248424 -15
      vertex 2.1 14.5 -15
      vertex 3.027050983124842 14.353169548885461 -15
    endloop
  endfacet
  facet normal 0 0 -1
    outer loop
      vertex 3.8633557568774197 -2.4270509831248424 -15
      vertex 3.027050983124842 14.353169548885461 -15
      vertex 3.8633557568774197 13.927050983124843 -15
    endloop
  endfacet
  facet normal 0 0 -1
    outer loop
      vertex 3.8633557568774197 -2.4270509831248424 -15
      vertex 4.527050983124843 13.26335575687742 -15
      vertex 4.953169548885461 12.427050983124841 -15
    endloop
  endfacet
  facet normal 0 0 -1
    outer loop
      vertex 3.8633557568774197 -2.4270509831248424 -15
      vertex 4.953169548885461 12.427050983124841 -15
      vertex 5.1 11.5 -15
    endloop
  endfacet
  facet normal 0 0 -1
    outer loop
      vertex 3.8633557568774197 -2.4270509831248424 -15
      vertex 3.8633557568774197 13.927050983124843 -15
      vertex 4.527050983124843 13.26335575687742 -15
    endloop
  endfacet
  facet normal 0.45399049973954586 0.8910065241883683 0
    outer loop
      vertex 3.027050983124842 14.353169548885461 -15
      vertex 3.027050983124842 14.353169548885461 0.00001
      vertex 3.8633557568774197 13.927050983124843 -15
    endloop
  endfacet
  facet normal 0.9876883405951378 0.1564344650402308 0
    outer loop
      vertex 5.1 11.5 -15
      vertex 4.953169548885461 12.427050983124841 -15
      vertex 5.1 11.5 0.00001
    endloop
  endfacet
  facet normal 0.7071067811865476 0.7071067811865476 0
    outer loop
      vertex 3.8633557568774197 13.927050983124843 -15
      vertex 4.527050983124843 13.26335575687742 0.00001
      vertex 4.527050983124843 13.26335575687742 -15
    endloop
  endfacet
  facet normal 0.8910065241883686 0.4539904997395455 0
    outer loop
      vertex 4.527050983124843 13.26335575687742 -15
      vertex 4.527050983124843 13.26335575687742 0.00001
      vertex 4.953169548885461 12.427050983124841 -15
    endloop
  endfacet
  facet normal 0 0 1
    outer loop
      vertex -1 11.5 0.00001
      vertex 1 1.1 0.00001
      vertex 1 11.5 0.00001
    endloop
  endfacet
  facet normal 0 0 1
    outer loop
      vertex -2.1 14.5 0.00001
      vertex 1 11.5 0.00001
      vertex 2.1 14.5 0.00001
    endloop
  endfacet
  facet normal 0 0 1
    outer loop
      vertex 1 11.5 0.00001
      vertex 2.1 11.5 0.00001
      vertex 2.1 14.5 0.00001
    endloop
  endfacet
  facet normal 1 0 0
    outer loop
      vertex 5.1 0 0.00001
      vertex 5.1 11.5 -15
      vertex 5.1 11.5 0.00001
    endloop
  endfacet
  facet normal 0 0 1
    outer loop
      vertex 4.953169548885461 -0.9270509831248421 0.00001
      vertex 2.1 14.5 0.00001
      vertex 2.1 11.5 0.00001
    endloop
  endfacet
  facet normal 0 0 1
    outer loop
      vertex 4.953169548885461 -0.9270509831248421 0.00001
      vertex 3.027050983124842 14.353169548885461 0.00001
      vertex 2.1 14.5 0.00001
    endloop
  endfacet
  facet normal 0 0 1
    outer loop
      vertex 4.953169548885461 -0.9270509831248421 0.00001
      vertex 5.1 11.5 0.00001
      vertex 4.953169548885461 12.427050983124841 0.00001
    endloop
  endfacet
  facet normal 0 0 1
    outer loop
      vertex 4.953169548885461 -0.9270509831248421 0.00001
      vertex 4.527050983124843 13.26335575687742 0.00001
      vertex 3.8633557568774197 13.927050983124843 0.00001
    endloop
  endfacet
  facet normal 0 0 1
    outer loop
      vertex 4.953169548885461 -0.9270509831248421 0.00001
      vertex 3.8633557568774197 13.927050983124843 0.00001
      vertex 3.027050983124842 14.353169548885461 0.00001
    endloop
  endfacet
  facet normal 0 0 1
    outer loop
      vertex 4.953169548885461 -0.9270509831248421 0.00001
      vertex 4.953169548885461 12.427050983124841 0.00001
      vertex 4.527050983124843 13.26335575687742 0.00001
    endloop
  endfacet
  facet normal 0.15643446504023073 0.9876883405951378 0
    outer loop
      vertex 3.027050983124842 14.353169548885461 -15
      vertex 2.1 14.5 0.00001
      vertex 3.027050983124842 14.353169548885461 0.00001
    endloop
  endfacet
  facet normal 0.45399049973954586 0.8910065241883683 0
    outer loop
      vertex 3.8633557568774197 13.927050983124843 -15
      vertex 3.027050983124842 14.353169548885461 0.00001
      vertex 3.8633557568774197 13.927050983124843 0.00001
    endloop
  endfacet
  facet normal 0.9876883405951378 0.1564344650402308 0
    outer loop
      vertex 4.953169548885461 12.427050983124841 -15
      vertex 4.953169548885461 12.427050983124841 0.00001
      vertex 5.1 11.5 0.00001
    endloop
  endfacet
  facet normal 0.7071067811865476 0.7071067811865476 0
    outer loop
      vertex 3.8633557568774197 13.927050983124843 -15
      vertex 3.8633557568774197 13.927050983124843 0.00001
      vertex 4.527050983124843 13.26335575687742 0.00001
    endloop
  endfacet
  facet normal 0.8910065241883686 0.4539904997395455 0
    outer loop
      vertex 4.953169548885461 12.427050983124841 -15
      vertex 4.527050983124843 13.26335575687742 0.00001
      vertex 4.953169548885461 12.427050983124841 0.00001
    endloop
  endfacet
  facet normal 0 1 0
    outer loop
      vertex 1 0.5 -10
      vertex 1 0.5 0
      vertex 2.1 0.5 -10
    endloop
  endfacet
  facet normal 0 0 1
    outer loop
      vertex 1 0.5 -10
      vertex 2.1 0.5 -10
      vertex 2.1 11.5 -10
    endloop
  endfacet
  facet normal -1 0 0
    outer loop
      vertex 2.1 0.5 -10
      vertex 2.1 0.5 0.00001
      vertex 2.1 11.5 -10
    endloop
  endfacet
  facet normal 1 0 0
    outer loop
      vertex 1 0.5 -10
      vertex 1 1.1 0
      vertex 1 0.5 0
    endloop
  endfacet
  facet normal 0 1 0
    outer loop
      vertex 2.1 0.5 -10
      vertex 1 0.5 0
      vertex 1 0.5 0.00001
    endloop
  endfacet
  facet normal 0 1 0
    outer loop
      vertex 2.1 0.5 -10
      vertex 1 0.5 0.00001
      vertex 2.1 0.5 0.00001
    endloop
  endfacet
  facet normal 1 0 0
    outer loop
      vertex 1 0.5 -10
      vertex 1 11.5 0.00001
      vertex 1 1.1 0
    endloop
  endfacet
  facet normal 1 0 0
    outer loop
      vertex 1 11.5 0.00001
      vertex 1 1.1 0.00001
      vertex 1 1.1 0
    endloop
  endfacet
  facet normal 1 0 0
    outer loop
      vertex 1 0.5 -10
      vertex 1 11.5 -10
      vertex 1 11.5 0.00001
    endloop
  endfacet
  facet normal 0 0 1
    outer loop
      vertex 1 0.5 -10
      vertex 2.1 11.5 -10
      vertex 1 11.5 -10
    endloop
  endfacet
  facet normal 0 -1 0
    outer loop
      vertex 1 11.5 -10
      vertex 2.1 11.5 -10
      vertex 2.1 11.5 0.00001
    endloop
  endfacet
  facet normal -1 0 0
    outer loop
      vertex 2.1 0.5 0.00001
      vertex 2.1 11.5 0.00001
      vertex 2.1 11.5 -10
    endloop
  endfacet
  facet normal 0 -1 0
    outer loop
      vertex 1 11.5 -10
      vertex 2.1 11.5 0.00001
      vertex 1 11.5 0.00001
    endloop
  endfacet
  facet normal 0 1 0
    outer loop
      vertex -2.1 0.5 -10
      vertex -2.1 0.5 0.00001
      vertex -1 0.5 -10
    endloop
  endfacet
  facet normal 0 0 1
    outer loop
      vertex -2.1 0.5 -10
      vertex -1 0.5 -10
      vertex -1 11.5 -10
    endloop
  endfacet
  facet normal -1 0 0
    outer loop
      vertex -1 11.5 -10
      vertex -1 0.5 -10
      vertex -1 0.500010999989 0
    endloop
  endfacet
  facet normal 0 1 0
    outer loop
      vertex -2.1 0.5 0.00001
      vertex -1 0.5 0.00001
      vertex -1 0.5 -10
    endloop
  endfacet
  facet normal -1 0 0
    outer loop
      vertex -1 0.5 -10
      vertex -1 0.5 0.00001
      vertex -1 0.500010999989 0
    endloop
  endfacet
  facet normal 1 0 0
    outer loop
      vertex -2.1 0.5 -10
      vertex -2.1 11.5 0.00001
      vertex -2.1 0.5 0.00001
    endloop
  endfacet
  facet normal -1 0 0
    outer loop
      vertex -1 11.5 -10
      vertex -1 0.500010999989 0
      vertex -1 1.1 0
    endloop
  endfacet
  facet normal -1 0 0
    outer loop
      vertex -1 11.5 0.00001
      vertex -1 1.1 0
      vertex -1 1.1 0.00001
    endloop
  endfacet
  facet normal 0 0 1
    outer loop
      vertex -2.1 0.5 -10
      vertex -1 11.5 -10
      vertex -2.1 11.5 -10
    endloop
  endfacet
  facet normal 1 0 0
    outer loop
      vertex -2.1 0.5 -10
      vertex -2.1 11.5 -10
      vertex -2.1 11.5 0.00001
    endloop
  endfacet
  facet normal 0 -1 0
    outer loop
      vertex -2.1 11.5 -10
      vertex -1 11.5 -10
      vertex -1 11.5 0.00001
    endloop
  endfacet
  facet normal -1 0 0
    outer loop
      vertex -1 11.5 -10
      vertex -1 1.1 0
      vertex -1 11.5 0.00001
    endloop
  endfacet
  facet normal 0 -1 0
    outer loop
      vertex -2.1 11.5 -10
      vertex -1 11.5 0.00001
      vertex -2.1 11.5 0.00001
    endloop
  endfacet
  facet normal -1 0 0
    outer loop
      vertex -1 0 4
      vertex -1 0.5 0.00001
      vertex -1 0 0.00001
    endloop
  endfacet
  facet normal -1 0 0
    outer loop
      vertex -1 1.1 0
      vertex -1 0.500010999989 0
      vertex -1 1.1 0.00001
    endloop
  endfacet
  facet normal -1 0 0
    outer loop
      vertex -1 1.1 4
      vertex -1 0.500010999989 0
      vertex -1 0.5 0.00001
    endloop
  endfacet
  facet normal -1 0 0
    outer loop
      vertex -1 0.500010999989 0
      vertex -1 1.1 4
      vertex -1 1.1 0.00001
    endloop
  endfacet
  facet normal 0 1 0
    outer loop
      vertex -1 1.1 4
      vertex 1 1.1 0.00001
      vertex -1 1.1 0.00001
    endloop
  endfacet
  facet normal -1 0 0
    outer loop
      vertex -1 0 4
      vertex -1 1.1 4
      vertex -1 0.5 0.00001
    endloop
  endfacet
  facet normal 0 -1 0
    outer loop
      vertex -1 0 4
      vertex -1 0 0.00001
      vertex 1 0 4
    endloop
  endfacet
  facet normal 0 0 1
    outer loop
      vertex -1 0 4
      vertex 1 0 4
      vertex -1 1.1 4
    endloop
  endfacet
  facet normal 0 -1 0
    outer loop
      vertex 1 0 4
      vertex -1 0 0.00001
      vertex 1 0 0.00001
    endloop
  endfacet
  facet normal 1 0 0
    outer loop
      vertex 1 0 4
      vertex 1 0 0.00001
      vertex 1 0.5 0.00001
    endloop
  endfacet
  facet normal 1 0 0
    outer loop
      vertex 1 1.1 0
      vertex 1 0.5 0.00001
      vertex 1 0.5 0
    endloop
  endfacet
  facet normal 1 0 0
    outer loop
      vertex 1 0 4
      vertex 1 0.5 0.00001
      vertex 1 1.1 0
    endloop
  endfacet
  facet normal 1 0 0
    outer loop
      vertex 1 0 4
      vertex 1 1.1 0
      vertex 1 1.1 0.00001
    endloop
  endfacet
  facet normal 0 1 0
    outer loop
      vertex -1 1.1 4
      vertex 1 1.1 4
      vertex 1 1.1 0.00001
    endloop
  endfacet
  facet normal 0 0 1
    outer loop
      vertex -1 1.1 4
      vertex 1 0 4
      vertex 1 1.1 4
    endloop
  endfacet
  facet normal 1 0 0
    outer loop
      vertex 1 0 4
      vertex 1 1.1 0.00001
      vertex 1 1.1 4
    endloop
  endfacet
endsolid OpenSCAD_Model
